<svg id="SVG_Grey" xmlns="http://www.w3.org/2000/svg" viewBox="0 0 500 500"><defs><style>.cls-1,.cls-2{fill:#58595b;}.cls-2{font-size:70px;font-family:ArialMT, Arial;}.cls-3{letter-spacing:-0.04em;}</style></defs><title>SVG icons Origin</title><path class="cls-1" d="M366,294.16,330.7,143c-2.2-9.29-8.34-14.85-16.4-14.85h-19v15.28H314.5c.23.16.87,1,1.34,3.08L351,296.8a2.78,2.78,0,0,1-1.34.45H152.74a2.78,2.78,0,0,1-1.35-.45L186.5,146.58a7,7,0,0,1,1.29-3.11H257.3V128.19H188c-8.06,0-14.19,5.56-16.41,14.88L136.34,294.19A13.72,13.72,0,0,0,139.13,306a17.69,17.69,0,0,0,13.61,6.47H349.61A17.76,17.76,0,0,0,363.23,306,13.82,13.82,0,0,0,366,294.16Z"/><path class="cls-1" d="M323.87,47.78A47.8,47.8,0,1,1,276.08,0,47.8,47.8,0,0,1,323.87,47.78Z"/><path class="cls-1" d="M307.57,251.25c-.26-2.35-9.57-88.2-9.72-91.42-.11-2.24-1-3.75-2.56-4.45v9.09a15.73,15.73,0,0,1-15.7,15.7H273a15.74,15.74,0,0,1-15.7-15.7v-9.3c-2.28.8-2.21,3.29-2.09,6.54.15,4,1.49,54.52,1.49,55.43s0,3.21-2.16,3.21h-9.72c-2.48,0-2.92-.83-2.92-2.76s-.09-12.43,0-14.83S240.78,199,238,199H200.3a4.15,4.15,0,0,0-4.15,3.86c-.45,2.88-9.9,70.64-10.43,75.56s1.13,6.17,3.67,6.17h48c2.59,0,3.63-.71,3.63-3.63s-.24-13.69-.24-18.68,2.42-6.86,6.05-6.86h57.06C307.57,255.46,307.83,253.61,307.57,251.25Z"/><path class="cls-1" d="M284.08,164.47a4.49,4.49,0,0,1-4.49,4.47H273a4.48,4.48,0,0,1-4.48-4.47V100a51.18,51.18,0,0,1-9-2.12v66.62A13.48,13.48,0,0,0,273,177.93h6.59a13.49,13.49,0,0,0,13.47-13.46V97.71a51.9,51.9,0,0,1-9,2.21Z"/><text class="cls-2" transform="translate(43.2 403.71)"><tspan class="cls-3">T</tspan><tspan x="40.16" y="0">ransmission</tspan><tspan x="130.94" y="84">Fluid</tspan></text></svg>