<svg aria-hidden="true" role="img" xmlns="http://www.w3.org/2000/svg" viewBox="-31 0 512 512"
                    class="icon-xl orange-text pr-3 mt-n2 ml-2 mr-1">
                    <path fill="#e84c0f"
                        d="m120 332v60h-55.8125l-30 90h-34.1875v30h450v-30h-34.1875l-30-90h-55.8125v-60h-90v-92h28.007812l23.355469-163.480469c5.769531-40.394531-25.609375-76.519531-66.363281-76.519531-40.800781 0-72.128906 36.171875-66.363281 76.519531l23.355469 163.480469h28.007812v92zm105-302c22.542969 0 39.847656 19.984375 36.664062 42.277344l-11.101562 77.722656h-51.125l-11.101562-77.722656c-3.1875-22.316406 14.148437-42.277344 36.664062-42.277344zm-21.277344 150h42.554688l-4.285156 30h-33.980469zm180.464844 302h-318.375l20-60h278.375zm-84.1875-90h-150v-30h150zm0 0" />
                </svg>