<?xml version="1.0" encoding="utf-8"?>
<!-- Generator: Adobe Illustrator 24.0.1, SVG Export Plug-In . SVG Version: 6.00 Build 0)  -->
<svg version="1.1" id="Layer_1" xmlns="http://www.w3.org/2000/svg" xmlns:xlink="http://www.w3.org/1999/xlink" x="0px" y="0px"
	 viewBox="0 0 321.5 266.2" style="enable-background:new 0 0 321.5 266.2;" xml:space="preserve">
<style type="text/css">
	.st0{fill-rule:evenodd;clip-rule:evenodd;fill:#BB410C;}
	.st1{fill-rule:evenodd;clip-rule:evenodd;fill:#E84C0F;}
	.st2{fill-rule:evenodd;clip-rule:evenodd;fill:#DBDBDB;}
</style>
<g id="Layer_1_1_">
</g>
<g>
	<path class="st0" d="M215.2,42.3l48.7,84.4l34.7-20l-48.7-84.4L215.2,42.3z M268.6,107.5c-2.2-0.6-4.2-2-5.5-4.2
		c-1.2-2.2-1.5-4.6-0.9-6.8c0.6-2.2,2-4.1,4-5.4l0.4-0.2c2.1-1.2,4.5-1.4,6.6-0.8c2.2,0.6,4.1,2,5.4,4.1l0.2,0.3
		c1.2,2.1,1.4,4.5,0.8,6.6c-0.6,2.2-2,4.2-4.2,5.4l-0.1,0C273.2,107.8,270.8,108.1,268.6,107.5z M266.5,101.4c0.7,1.2,1.8,2,3.1,2.3
		c1.3,0.3,2.7,0.2,3.9-0.5l0,0c1.2-0.7,2-1.8,2.3-3.1c0.3-1.3,0.2-2.6-0.5-3.9c-0.7-1.2-1.8-2-3.1-2.4c-1.3-0.3-2.7-0.2-3.9,0.5l0,0
		c-1.2,0.7-2,1.8-2.3,3C265.7,98.7,265.8,100.1,266.5,101.4L266.5,101.4z M78.4,149.1c16.2-28.1,32.5-56.3,48.7-84.4L92.4,44.6
		L43.7,129L78.4,149.1z M72.8,126c1.2-0.3,2.3-1.1,3-2.3l0-0.1c0.7-1.2,0.8-2.6,0.5-3.9c-0.3-1.2-1.1-2.3-2.3-3l-0.1,0
		c-1.2-0.7-2.6-0.8-3.9-0.5c-1.2,0.3-2.4,1.1-3.1,2.3l0,0c-0.7,1.2-0.8,2.6-0.5,3.9c0.3,1.2,1.1,2.4,2.3,3.1l0,0
		C70.1,126.2,71.5,126.3,72.8,126z M79.2,125.7c-1.2,2.1-3.2,3.5-5.4,4.1c-2.2,0.6-4.7,0.3-6.8-0.9c-2.2-1.2-3.6-3.2-4.2-5.5
		c-0.6-2.2-0.4-4.7,0.9-6.8l0-0.1c1.2-2.1,3.2-3.6,5.4-4.2c2.2-0.6,4.7-0.3,6.8,0.9l0.1,0.1c2.1,1.2,3.5,3.2,4.1,5.4
		C80.7,121,80.5,123.4,79.2,125.7L79.2,125.7z"/>
	<path class="st1" d="M138.9,60.9c12.4-8.7,21-5.2,29.1-1.9c4.5,1.9,8.9,3.6,13.5,2.6c13.8-3.1,23.4-2.7,29.4-0.5
		c3.1,1.1,5.4,2.8,6.7,4.8c1.5,2.1,2,4.4,1.6,6.9c-0.4,2.9-2.2,5.9-5,8.6c-8.9,8.4-23.6,8.6-38,8.5l45.2,26.1l28.9,16.7l6.3-10.6
		c-14.8-25.6-30.5-50.9-44.5-77l0,0l-4.2,1.2c-0.7,0.2-1.4,0-1.9-0.4c-13.6-12.3-22.2-8.7-30.2-5.4c-5.1,2.1-10,4.1-15.8,2.8
		c-13-2.9-21.8-2.6-27.2-0.7c-2.3,0.8-3.9,2-4.9,3.3c-0.8,1.2-1.1,2.6-0.9,4c0.3,2.1,1.6,4.3,3.8,6.3c1.2,1.2,2.6,2.1,4.1,3
		C136.2,59.9,137.5,60.5,138.9,60.9z"/>
	<path class="st1" d="M175,180.5l-0.8-0.5h0l0,0v0l0,0l0,0l0,0l0,0l0,0h0l0,0h0l0,0l0,0l0,0l0,0h0l0,0h0l0,0h0l0,0h0l0,0l0,0l0,0
		l0,0l0,0l0,0l0,0l0,0l0,0l0,0l0,0l0,0l0,0l0,0v0l0,0l0,0l0,0h0l0,0l0,0l0,0l0,0l0,0v0l0,0v0l0,0l0,0l0,0v0l0,0v0l0,0v0l0,0v0v0l0,0
		v0v0l0,0v0v0v0v0l0,0v0v0v0v0v0l0,0v0v0v0v0v0v0v0v0v0v0v0l0,0v0v0v0v0v0l0,0v0v0l0,0l0,0l0,0v0l0,0l0,0v0l0,0v0l0,0v0l0,0l0,0l0,0
		l0,0l0,0l0,0l0,0l0,0l0,0v0l0,0l0,0l0,0l0,0l0,0l0,0l0,0v0l0,0l0,0l0,0l0,0l0,0l0,0l0,0l0,0l0,0v0l0,0l0,0l0,0l0,0l0,0v0l0,0l0,0
		l0,0l0,0l0,0l0,0l0,0l0,0l0,0l0,0l0,0l0,0l0,0l0,0l0,0l0,0l0,0l0,0l0,0l0,0l0,0l0,0l0,0v0l0,0l0,0l0,0v0l0,0l0,0l0,0l0,0l0,0v0l0,0
		l0,0l0,0l0,0l0,0l0,0l0,0l0,0l0,0l0,0l0,0l0,0h0v0h0l0,0l0,0l0,0h0l0,0l0,0l0,0h0l0,0l0,0l0,0h0l0,0h0l0,0h0l0,0h0h0.1h0l0,0h0l0,0
		h0l0,0h0l0,0l0,0l0,0h0l0,0l0,0l0,0h0l0,0l0,0l0,0l0,0l0,0l0,0l0,0l0,0l0,0l0,0l0,0l0,0l0,0l0,0l0,0l0,0l0,0l0,0v0l0,0l0,0l0,0l0,0
		l0,0l0,0l15.8,9.1c2.5,1.5,5.4,1.7,8,1c2.6-0.7,5-2.4,6.4-4.9c1.4-2.5,1.7-5.3,1.1-7.9c-0.7-2.6-2.3-4.9-4.7-6.4
		c-0.9-0.6-1.2-1.7-0.7-2.7c0.5-0.9,1.7-1.3,2.7-0.7c4.1,2.4,8.2,4.9,12.3,7.1c2.5,1.5,5.4,1.7,8,1c2.6-0.7,5-2.4,6.4-4.9
		c1.4-2.5,1.7-5.3,1.1-7.9c-0.7-2.6-2.3-4.9-4.7-6.4c-0.9-0.5-1.2-1.7-0.7-2.7c0.5-0.9,1.7-1.2,2.7-0.7l14.7,8.5
		c2.5,1.4,5.4,1.7,8,1c2.6-0.7,5-2.4,6.4-4.9c1.4-2.5,1.7-5.4,1-8c-0.7-2.6-2.4-5-4.9-6.4l-48.4-28c-13-7.5-25.9-15-38.9-22.5
		c-0.6-0.3-1-1-1-1.7c0-1.1,0.9-2,2-2l5.1,0c14.3,0.2,29.4,0.4,37.7-7.4c2.2-2,3.5-4.3,3.8-6.3c0.2-1.4-0.1-2.8-0.9-4
		c-0.9-1.3-2.5-2.5-4.9-3.3c-5.4-2-14.3-2.2-27.2,0.7c-5.9,1.3-10.7-0.7-15.9-2.8c-8.1-3.3-16.7-6.9-30.2,5.4
		c-0.5,0.4-1.2,0.6-1.9,0.4l-4.2-1.2c-14.8,25.7-29.6,51.3-44.5,77l8,13.6c23.1,13.3,46.4,27.6,69.8,40.3c2.5,1.5,5.4,1.7,8,1
		c2.6-0.7,5-2.4,6.4-4.9c1.4-2.5,1.7-5.3,1.1-7.9C178.4,184.1,177,182,175,180.5z"/>
	<path class="st2" d="M291.1,225.8c1.1,0,2,0.9,2,2c0,1.1-0.9,2-2,2H103.6c-1.1,0-2-0.9-2-2c0-1.1,0.9-2,2-2H291.1z"/>
	<path class="st2" d="M181.3,237.2c1.1,0,2,0.9,2,2c0,1.1-0.9,2-2,2H51.6c-1.1,0-2-0.9-2-2c0-1.1,0.9-2,2-2H181.3z"/>
	<path class="st2" d="M38.3,237.2c1.1,0,2,0.9,2,2c0,1.1-0.9,2-2,2H22.1c-1.1,0-2-0.9-2-2c0-1.1,0.9-2,2-2H38.3z"/>
	<path class="st2" d="M298.5,236.8c1.1,0,2,0.9,2,2c0,1.1-0.9,2-2,2H237c-1.1,0-2-0.9-2-2c0-1.1,0.9-2,2-2H298.5z"/>
	<path class="st2" d="M119.6,189.8c0.9,0.5,1.3,1.7,0.7,2.7c-0.5,0.9-1.7,1.3-2.7,0.7l-36.9-21.3c-0.5-0.3-0.8-0.7-0.9-1.2l-1.6-5.9
		l-23-13.3c-0.9-0.5-1.2-1.7-0.7-2.7c0.5-0.9,1.7-1.2,2.7-0.7l23.6,13.6c0.5,0.2,0.8,0.7,1,1.2l1.6,6L119.6,189.8z"/>
</g>
</svg>
