<?xml version="1.0" encoding="utf-8"?>
<!-- Generator: Adobe Illustrator 22.0.1, SVG Export Plug-In . SVG Version: 6.00 Build 0)  -->
<svg version="1.1" id="Layer_1" xmlns="http://www.w3.org/2000/svg" xmlns:xlink="http://www.w3.org/1999/xlink" x="0px" y="0px"
	 viewBox="0 0 358.7 143.3" style="enable-background:new 0 0 358.7 143.3;" xml:space="preserve">
<style type="text/css">
	.st0{fill:#E84C0F;}
	.st1{fill:#5B5755;}
</style>
<g>
	<g>
		<g>
			<g>
				<polygon class="st0" points="140.4,72.7 159.7,5 183.9,5 158.3,92.8 121.7,92.8 96.9,5 120.7,5 139.7,72.7 				"/>
			</g>
			<g>
				<polygon class="st0" points="210.7,24.2 210.7,40.2 248.2,40.2 248.2,56.5 210.7,56.5 210.7,73.6 251.4,73.6 251.4,92.8 
					187.3,92.8 187.3,5 250.6,5 250.6,24.2 				"/>
			</g>
			<g>
				<path class="st0" d="M309.2,59.5h24.1v2.6c0,6.2-0.5,11.1-1.3,14.9c-0.9,3.7-3.1,7.1-6.7,10.1c-2.5,2-5.2,3.5-8,4.4
					c-2.8,0.9-5.7,1.5-8.5,1.7c-2.9,0.2-6.7,0.4-11.4,0.4c-7.3,0-13.2-0.3-17.7-0.8s-8.7-1.9-12.3-4s-6.4-5.4-8.4-10
					c-2-4.6-2.9-10.7-2.9-18.4V37.5c0-9.3,1.6-16.4,4.7-21.2c3.2-4.8,7.7-8.1,13.5-9.7c5.9-1.6,13.5-2.4,23.1-2.4
					c6.9,0,12.4,0.3,16.5,0.9c4.1,0.6,7.6,1.8,10.5,3.7c2.8,1.9,5,4.8,6.5,8.6c1.5,3.8,2.3,9,2.3,15.6v3.4h-24.1v-3.4
					c-0.2-2.5-1-4.4-2.2-5.6c-1.2-1.2-2.8-2-4.6-2.3c-1.9-0.4-4.4-0.5-7.5-0.5c-4.5,0-7.7,0.5-9.7,1.5c-2,1-3.4,2.6-4,4.9
					c-0.6,2.2-0.9,5.6-0.9,10.2V55c0,3.9,0.1,6.9,0.4,9c0.3,2.1,0.9,3.8,1.8,5.2c0.9,1.4,2.3,2.4,4.3,3c1.9,0.6,4.7,0.9,8.2,0.9
					c3.7,0,6.5-0.2,8.4-0.6c1.9-0.4,3.4-1.4,4.5-3c1-1.6,1.5-4,1.5-7.4V59.5z"/>
			</g>
			<path class="st0" d="M111.4,92.8c-0.6-2.4-1.3-4.6-2-6.6L84.7,5H49.1L31.4,63.8c-10.8,2.3-21.1,4.5-29.8,4.8
				c7.3,6.6,15.9,9.5,25.1,10.6l-4.1,13.6h24.4l3.8-13.1C71.4,79,93,77.8,111.4,92.8z M67.1,22.5h0.2l10.5,36.7
				c-6.6-1-13.7-0.8-21,0L67.1,22.5z"/>
		</g>
	</g>
	<g>
		<path class="st0" d="M346.7,21.1c-1.2,0-2.3-0.2-3.3-0.7c-1-0.4-1.9-1-2.6-1.8c-0.8-0.8-1.3-1.6-1.8-2.6c-0.4-1-0.6-2.1-0.6-3.2v0
			c0-1.2,0.2-2.2,0.6-3.2c0.4-1,1-1.9,1.8-2.7c0.8-0.8,1.6-1.4,2.7-1.8c1-0.4,2.1-0.7,3.3-0.7c1.2,0,2.3,0.2,3.3,0.7
			c1,0.4,1.9,1,2.6,1.8c0.8,0.8,1.3,1.6,1.8,2.6c0.4,1,0.6,2.1,0.6,3.2v0c0,1.2-0.2,2.2-0.6,3.2c-0.4,1-1,1.9-1.8,2.7
			c-0.8,0.8-1.6,1.4-2.7,1.8C348.9,20.8,347.9,21.1,346.7,21.1z M346.7,20c1,0,2-0.2,2.9-0.6c0.9-0.4,1.6-0.9,2.3-1.6
			c0.6-0.7,1.1-1.4,1.5-2.3c0.4-0.9,0.6-1.8,0.6-2.8v0c0-1-0.2-1.9-0.5-2.8c-0.4-0.9-0.9-1.6-1.5-2.3s-1.4-1.2-2.3-1.6
			c-0.9-0.4-1.8-0.6-2.9-0.6c-1,0-2,0.2-2.9,0.6c-0.9,0.4-1.6,0.9-2.3,1.6c-0.6,0.7-1.2,1.4-1.5,2.3c-0.4,0.9-0.6,1.8-0.6,2.8v0
			c0,1,0.2,1.9,0.5,2.8c0.4,0.9,0.9,1.6,1.5,2.3c0.7,0.7,1.4,1.2,2.3,1.6C344.7,19.8,345.7,20,346.7,20z M343.6,8.3h3.7
			c0.9,0,1.6,0.2,2.2,0.7c0.6,0.4,0.9,1.1,0.9,1.9c0,0.7-0.2,1.3-0.6,1.7c-0.4,0.4-0.9,0.7-1.5,0.9l2.4,3.3h-1.7l-2.1-3.1h-2v3.1
			h-1.3V8.3z M347.2,12.5c0.6,0,1.1-0.1,1.4-0.4c0.3-0.3,0.5-0.7,0.5-1.1c0-0.5-0.2-0.9-0.5-1.1c-0.3-0.2-0.8-0.4-1.4-0.4h-2.3v3
			H347.2z"/>
	</g>
</g>
<g>
	<path class="st1" d="M215.6,110.7c1.1,0,2,0.9,2,2s-0.9,2-2,2c-1.1,0-2-0.9-2-2S214.5,110.7,215.6,110.7z M214.2,134.9v-16.1h2.7
		v16.4c0,1.4,0.4,1.8,1.7,1.8v2.3C215.8,139.3,214.2,138.1,214.2,134.9z"/>
	<path class="st1" d="M230.2,127.1l9.7,11.8h-3.5l-7.9-10.2l-2.5,2.4v7.8h-2.7v-30.2h2.7v19.1l9.1-9h3.8L230.2,127.1z"/>
	<path class="st1" d="M244.6,110.7c1.1,0,2,0.9,2,2s-0.9,2-2,2c-1.1,0-2-0.9-2-2S243.5,110.7,244.6,110.7z M243.2,134.9v-16.1h2.7
		v16.4c0,1.4,0.4,1.8,1.7,1.8v2.3C244.7,139.3,243.2,138.1,243.2,134.9z"/>
	<path class="st1" d="M264.5,124.3c0-2.6-1.5-3.4-4-3.4c-2.6,0-3.9,0.4-5.4,1.3v16.7h-2.8v-20.1h1.6l0.6,1.7
		c1.9-1.4,3.9-2.1,6.1-2.1c4.8,0,6.8,2.2,6.8,6v14.5h-2.8V124.3z"/>
	<path class="st1" d="M280.5,118.4c2,0,4.2,0.2,6,1v2.4c-1.6-0.5-3.2-0.9-6-0.9c-5.1,0-5.6,4-5.6,8c0,4,0.6,8,5.6,8
		c2.9,0,4.5-0.4,6-0.9v2.4c-1.8,0.8-4,1-6,1c-6.8,0-8.5-4.7-8.5-10.5C272,123.1,273.7,118.4,280.5,118.4z"/>
	<path class="st1" d="M292.9,110.7c1.1,0,2,0.9,2,2s-0.9,2-2,2s-2-0.9-2-2S291.8,110.7,292.9,110.7z M291.5,134.9v-16.1h2.7v16.4
		c0,1.4,0.4,1.8,1.7,1.8v2.3C293.1,139.3,291.5,138.1,291.5,134.9z"/>
	<path class="st1" d="M315.4,118.4c6.8,0,7.6,4.7,7.6,10.5v1.3h-13.3c0.2,3.5,1.1,6.7,5.6,6.7c2.9,0,4.7-0.3,6.6-1.1v2.4
		c-2.3,1-4.7,1.2-6.6,1.2c-6.8,0-8.5-4.7-8.5-10.5C307,123.1,308.6,118.4,315.4,118.4z M309.8,127.8h10.5c0-3.6-0.2-7-4.8-7
		C310.8,120.9,309.9,124.2,309.8,127.8z"/>
	<path class="st1" d="M328.6,134.9v-26.2h2.7v26.5c0,1.4,0.4,1.8,1.7,1.8v2.3C330.1,139.3,328.6,138.1,328.6,134.9z"/>
</g>
</svg>
