<?xml version="1.0" encoding="utf-8"?>
<!-- Generator: Adobe Illustrator 22.0.1, SVG Export Plug-In . SVG Version: 6.00 Build 0)  -->
<svg version="1.1" xmlns="http://www.w3.org/2000/svg" xmlns:xlink="http://www.w3.org/1999/xlink" x="0px" y="0px"
	 viewBox="0 0 362.1 147.9" style="enable-background:new 0 0 362.1 147.9;" xml:space="preserve">
<style type="text/css">
	.st0{fill:#E84C0F;}
	.st1{fill:#2EBAD5;}
</style>
<g id="Guides_For_Artboard">
</g>
<g id="Layer_1">
	<g>
		<path class="st0" d="M313.1,116.5c2.2,0,4.6,0.3,6.6,1.1v2.6c-1.7-0.6-3.5-1-6.6-1c-5.5,0-6.2,4.4-6.2,8.7c0,4.4,0.6,8.7,6.2,8.7
			c3.1,0,4.9-0.4,6.6-1v2.6c-1.9,0.8-4.4,1.1-6.6,1.1c-7.4,0-9.3-5.1-9.3-11.5C303.8,121.6,305.7,116.5,313.1,116.5"/>
		<path class="st0" d="M332.3,119.2c-3,0-4.9,0.5-6.6,1.1v-2.6c1.9-0.8,4.5-1.2,6.6-1.2c6.6,0,8.3,3,8.3,7.4v15.1h-1.7l-0.7-1.8
			c-2,1.5-4.4,2.2-6.6,2.2c-5.8,0-7.7-3.4-7.7-7.1c0-3.7,2.1-6.5,7.8-6.9l5.8-0.4v-1.2C337.5,120.6,336.4,119.2,332.3,119.2
			 M331.5,127.8c-3.1,0.3-4.5,1.9-4.5,4.5c0,2,0.5,4.4,4.7,4.4c2.4,0,4-0.7,5.9-1.8v-7.7L331.5,127.8z"/>
		<path class="st0" d="M358.4,119.5c-0.7-0.2-1.5-0.4-2.6-0.4c-3,0-4.8,0.5-6.4,1.4v18.3h-3.1v-22h1.7l0.7,1.8
			c2.1-1.5,4.6-2.3,7.1-2.3c1,0,1.8,0.1,2.6,0.2V119.5z"/>
		<path class="st0" d="M202.5,119.5c-0.7-0.2-1.5-0.4-2.6-0.4c-3,0-4.8,0.5-6.4,1.4v18.3h-3.1v-22h1.7l0.7,1.8
			c2.1-1.5,4.6-2.3,7.1-2.3c1,0,1.8,0.1,2.6,0.2V119.5z"/>
		<path class="st0" d="M215.2,116.5c7.5,0,8.4,5.1,8.4,11.5v1.4h-14.5c0.2,3.8,1.2,7.3,6.2,7.3c3.2,0,5.1-0.3,7.3-1.2v2.6
			c-2.5,1.1-5.1,1.3-7.3,1.3c-7.4,0-9.2-5.1-9.2-11.5C206,121.6,207.8,116.5,215.2,116.5 M209.1,126.8h11.5c0-3.9-0.2-7.6-5.3-7.6
			C210.1,119.2,209.2,122.9,209.1,126.8"/>
		<path class="st0" d="M242.3,122.9c0-2.9-1.7-3.7-4.4-3.7c-2.9,0-4.3,0.5-5.9,1.4v18.3h-3.1v-22h1.7l0.7,1.8
			c2.1-1.5,4.3-2.3,6.6-2.3c5.2,0,7.5,2.4,7.5,6.6v15.9h-3.1V122.9z"/>
		<path class="st0" d="M262.4,139.2c-0.5,0.1-1.4,0.2-2,0.2c-3.7,0-7-1.7-7-6v-14h-4.4V118l4.4-1.3v-5.9l3.1-0.9v7h6.8v2.4h-6.8V133
			c0,2.7,1.5,3.8,4.2,3.8c0.6,0,1.1,0,1.7-0.1V139.2z"/>
		<path class="st0" d="M283.6,119.2c-3,0-4.9,0.5-6.6,1.1v-2.6c1.9-0.8,4.5-1.2,6.6-1.2c6.6,0,8.3,3,8.3,7.4v15.1h-1.7l-0.7-1.8
			c-2,1.5-4.4,2.2-6.6,2.2c-5.8,0-7.7-3.4-7.7-7.1c0-3.7,2.1-6.5,7.8-6.9l5.8-0.4v-1.2C288.8,120.6,287.6,119.2,283.6,119.2
			 M282.8,127.8c-3.1,0.3-4.5,1.9-4.5,4.5c0,2,0.5,4.4,4.7,4.4c2.4,0,4-0.7,5.9-1.8v-7.7L282.8,127.8z"/>
	</g>
	<polygon class="st1" points="144.1,74.7 163.4,7.1 187.6,7.1 162,94.9 125.5,94.9 100.6,7.1 124.4,7.1 143.4,74.7 	"/>
	<polygon class="st1" points="214.4,26.3 214.4,42.3 251.9,42.3 251.9,58.6 214.4,58.6 214.4,75.7 255.2,75.7 255.2,94.9 191,94.9 
		191,7.1 254.3,7.1 254.3,26.3 	"/>
	<path class="st1" d="M312.9,61.6H337v2.6c0,6.2-0.4,11.1-1.3,14.9c-0.9,3.7-3.1,7.1-6.7,10.1c-2.5,2-5.2,3.5-8,4.4
		c-2.8,0.9-5.7,1.5-8.5,1.7s-6.7,0.4-11.4,0.4c-7.3,0-13.2-0.3-17.7-0.8c-4.6-0.5-8.7-1.9-12.3-4c-3.6-2.1-6.4-5.4-8.4-10
		c-2-4.6-2.9-10.7-2.9-18.4V39.6c0-9.3,1.6-16.4,4.7-21.2c3.2-4.8,7.7-8.1,13.5-9.7c5.9-1.6,13.5-2.4,23.1-2.4
		c6.9,0,12.4,0.3,16.5,0.9c4.1,0.6,7.6,1.8,10.5,3.7c2.8,1.9,5,4.8,6.5,8.6c1.5,3.8,2.3,9,2.3,15.6v3.4h-24.1v-3.4
		c-0.2-2.5-1-4.4-2.2-5.6c-1.2-1.2-2.8-2-4.6-2.3c-1.9-0.4-4.4-0.5-7.5-0.5c-4.5,0-7.7,0.5-9.7,1.5c-2,1-3.4,2.6-4,4.9
		c-0.6,2.2-0.9,5.6-0.9,10.2v13.7c0,3.9,0.1,6.9,0.4,9c0.3,2.1,0.9,3.8,1.8,5.2c0.9,1.4,2.3,2.4,4.3,3c2,0.6,4.7,0.9,8.2,0.9
		c3.7,0,6.5-0.2,8.4-0.6c2-0.4,3.4-1.4,4.5-3c1-1.6,1.5-4,1.5-7.4V61.6z"/>
	<path class="st1" d="M115.1,94.9c-0.6-2.4-1.3-4.6-2-6.6L88.4,7.1H52.8L35.1,65.9c-10.8,2.3-21.1,4.5-29.8,4.8
		c7.3,6.6,15.9,9.5,25.1,10.6l-4.1,13.6h24.4l3.8-13.1C75.1,81.1,96.8,79.9,115.1,94.9 M70.8,24.6h0.2l10.5,36.7
		c-6.6-1-13.7-0.8-21,0L70.8,24.6z"/>
	<path class="st1" d="M350.4,23.1c-1.2,0-2.3-0.2-3.3-0.7c-1-0.4-1.9-1-2.6-1.8c-0.8-0.8-1.3-1.6-1.8-2.6c-0.4-1-0.6-2.1-0.6-3.2v0
		c0-1.2,0.2-2.2,0.6-3.2c0.4-1,1-1.9,1.8-2.7c0.8-0.8,1.6-1.4,2.7-1.8c1-0.4,2.1-0.7,3.3-0.7c1.2,0,2.3,0.2,3.3,0.7
		c1,0.4,1.9,1,2.6,1.8c0.8,0.8,1.3,1.6,1.8,2.6c0.4,1,0.6,2.1,0.6,3.2v0c0,1.2-0.2,2.2-0.6,3.2c-0.4,1-1,1.9-1.8,2.7
		c-0.8,0.8-1.6,1.4-2.7,1.8C352.7,22.9,351.6,23.1,350.4,23.1 M350.4,22.1c1,0,2-0.2,2.9-0.6c0.9-0.4,1.6-0.9,2.3-1.6
		c0.6-0.7,1.1-1.4,1.5-2.3c0.4-0.9,0.6-1.8,0.6-2.8v0c0-1-0.2-1.9-0.5-2.8c-0.4-0.9-0.9-1.6-1.5-2.3c-0.7-0.7-1.4-1.2-2.3-1.6
		c-0.9-0.4-1.8-0.6-2.9-0.6s-2,0.2-2.9,0.6c-0.9,0.4-1.6,0.9-2.3,1.6c-0.6,0.7-1.2,1.4-1.5,2.3c-0.4,0.9-0.6,1.8-0.6,2.8v0
		c0,1,0.2,1.9,0.5,2.8c0.4,0.9,0.9,1.6,1.5,2.3c0.7,0.7,1.4,1.2,2.3,1.6C348.4,21.9,349.4,22.1,350.4,22.1 M347.3,10.4h3.7
		c0.9,0,1.6,0.2,2.2,0.7c0.6,0.4,0.9,1.1,0.9,1.9c0,0.7-0.2,1.3-0.6,1.7c-0.4,0.4-0.9,0.7-1.5,0.9l2.4,3.3h-1.7l-2.1-3.1h-2v3.1
		h-1.3V10.4z M350.9,14.6c0.6,0,1.1-0.1,1.4-0.4c0.3-0.3,0.5-0.7,0.5-1.1c0-0.5-0.2-0.9-0.5-1.1c-0.3-0.2-0.8-0.4-1.4-0.4h-2.3v3
		H350.9z"/>
</g>
</svg>
