<?xml version="1.0" encoding="utf-8"?>
<!-- Generator: Adobe Illustrator 22.0.1, SVG Export Plug-In . SVG Version: 6.00 Build 0)  -->
<svg version="1.1" id="Layer_1" xmlns="http://www.w3.org/2000/svg" xmlns:xlink="http://www.w3.org/1999/xlink" x="0px" y="0px"
	 viewBox="0 0 4336.7 550" style="enable-background:new 0 0 4336.7 550;" xml:space="preserve">
<path d="M4303.7,193.9h-83.7l-74.5,212.4h-1.2l-74.5-212.4H3986v6.2l113.9,290.6h89.9L4303.7,200V193.9z M3851.1,96.6
	c0,26.5,19.1,45.6,48,45.6c29.6,0,48.6-19.1,48.6-45.6c0-26.5-19.1-45.6-48.6-45.6C3870.2,51,3851.1,70.1,3851.1,96.6z
	 M3940.4,490.6V193.9h-83.1v296.8H3940.4z M3630.1,124.9v69l-54.2,18.5v44.9h54.2v155.8c0,59.7,30.8,86.8,96.7,86.8
	c28.9,0,57.3-6.2,69.6-9.2v-67.7c-14.2,4.3-33.9,8.6-48,8.6c-24,0-35.1-12.3-35.1-33.9V257.3h85v-63.4h-85v-69H3630.1z
	 M3543.9,342.3c0-86.2-53.6-157.6-157-157.6c-101.6,0-156.4,71.4-156.4,157.6s54.8,157.6,156.4,157.6
	C3490.3,499.9,3543.9,428.5,3543.9,342.3z M3315.5,342.3c0-59.7,28.9-89.3,71.4-89.3c43.7,0,72,29.6,72,89.3s-28.3,89.3-72,89.3
	C3344.4,431.5,3315.5,402,3315.5,342.3z M2689.3,193.9v296.8h83.1V278.2c14.2-10.5,35.1-25.2,64.6-25.2c39.4,0,52.3,21.5,52.3,59.1
	v178.6h83.1V303.5c0-7.4-0.6-15.4-2.5-22.2c14.8-11.7,37.6-28.3,67.1-28.3c39.4,0,51.7,20.3,51.7,59.1v178.6h83.1V303.5
	c0-71.4-36.9-118.8-109-118.8c-61,0-89.9,30.2-108.4,45.6h-1.2c-17.9-28.9-46.8-45.6-90.5-45.6c-47.4,0-78.2,22.8-95.4,38.2h-1.8
	l-10.5-28.9H2689.3z M2627.8,342.3c0-86.2-53.6-157.6-157-157.6c-101.6,0-156.4,71.4-156.4,157.6s54.8,157.6,156.4,157.6
	C2574.2,499.9,2627.8,428.5,2627.8,342.3z M2399.3,342.3c0-59.7,28.9-89.3,71.4-89.3c43.7,0,72,29.6,72,89.3s-28.3,89.3-72,89.3
	C2428.3,431.5,2399.3,402,2399.3,342.3z M2103.2,124.9v69l-54.2,18.5v44.9h54.2v155.8c0,59.7,30.8,86.8,96.7,86.8
	c28.9,0,57.3-6.2,69.6-9.2v-67.7c-14.2,4.3-33.9,8.6-48,8.6c-24,0-35.1-12.3-35.1-33.9V257.3h85v-63.4h-85v-69H2103.2z
	 M2007.1,281.3c0-121.9-62.8-218.6-201.3-218.6c-139.8,0-201.9,96.7-201.9,218.6c0,121.9,62.2,218.6,201.9,218.6
	C1944.3,499.9,2007.1,403.2,2007.1,281.3z M1693.1,281.3c0-82.5,29.6-145.3,112.7-145.3c82.5,0,112.1,62.8,112.1,145.3
	c0,82.5-29.6,145.3-112.1,145.3C1722.7,426.6,1693.1,363.8,1693.1,281.3z M1224.6,353.3l105.9,137.3h94.2v-6.2L1306.5,338
	L1419.1,200v-6.2h-90.5l-104.1,133.6h-1.2V59.7h-83.1v431h83.1V353.3H1224.6z M876.7,314.6c1.8-35.7,22.8-69.6,64.6-69.6
	c46.8,0,62.2,27.1,62.2,60.3c0,3.1,0,6.2-0.6,9.2H876.7z M1075,366.3c1.8-10.5,4.3-34.5,4.3-53.6c0-69.6-42.5-128.1-138.5-128.1
	c-96.7,0-148.4,72.7-148.4,157c0,87.4,49.9,158.2,152.7,158.2c47.4,0,90.5-11.1,120.1-25.2l-19.1-59.7
	c-28.9,10.5-60.3,18.5-94.8,18.5c-44.3,0-71.4-25.2-74.5-67.1H1075z M770.2,193.9h-83.7L612,406.3h-1.2l-74.5-212.4h-83.7v6.2
	l113.9,290.6h89.9L770.2,200V193.9z M254.2,159.4l57.3,176.1H195.1l57.3-176.1H254.2z M303.5,72h-99.7L49.8,490.6h93.6l28.3-86.2
	h163.8l27.7,86.2h94.2L303.5,72z"/>
</svg>
