<?xml version="1.0" encoding="utf-8"?>
<!-- Generator: Adobe Illustrator 22.0.1, SVG Export Plug-In . SVG Version: 6.00 Build 0)  -->
<svg version="1.1" id="Layer_1" xmlns="http://www.w3.org/2000/svg" xmlns:xlink="http://www.w3.org/1999/xlink" x="0px" y="0px"
	 viewBox="0 0 223.9 127.1" style="enable-background:new 0 0 223.9 127.1;" xml:space="preserve">
<style type="text/css">
	.st0{fill-rule:evenodd;clip-rule:evenodd;fill:#35322F;}
	.st1{fill-rule:evenodd;clip-rule:evenodd;fill:#E84C0F;}
	.st2{fill:#35322F;}
</style>
<g>
	<g>
		<g>
			<g>
				<g>
					<polygon class="st0" points="134.9,40.7 100.3,6.2 89,17.6 89,17.6 42.6,63.9 54,75.3 100.3,28.9 123.5,52.1 					"/>
				</g>
			</g>
			<g>
				<g>
					<path class="st1" d="M180.6,40.9l0.3-0.3L146.6,6.3l-11.3,11.4L88.9,64.1l11.4,11.4l23.4-23.4L146.5,75l11.4-11.4l0,0
						L180.6,40.9L180.6,40.9z M135,40.7l11.6-11.6l11.5,11.5l-11.6,11.5L135,40.7z"/>
				</g>
			</g>
		</g>
	</g>
	<g>
		<g>
			<path class="st2" d="M17.5,109.1h5.9c-0.2,1.9-0.8,3.3-1.8,4.3c-1.1,1-2.6,1.5-4.5,1.5c-1.3,0-2.4-0.3-3.4-0.8
				c-0.9-0.5-1.7-1.2-2.2-2c-0.6-0.8-1-1.8-1.3-2.9c-0.3-1.1-0.4-2.1-0.4-3.3c0-1.2,0.1-2.3,0.4-3.4c0.3-1.1,0.7-2.1,1.3-2.9
				c0.6-0.9,1.3-1.5,2.2-2.1c0.9-0.5,2-0.8,3.4-0.8c1.4,0,2.6,0.4,3.6,1.1c1,0.7,1.7,1.9,2,3.4h5.6c-0.1-1.5-0.6-2.9-1.2-4
				c-0.7-1.2-1.5-2.2-2.6-3c-1-0.8-2.2-1.4-3.5-1.8c-1.3-0.4-2.6-0.6-4-0.6c-2,0-3.9,0.4-5.5,1.1c-1.6,0.7-3,1.7-4.1,3
				c-1.1,1.3-2,2.8-2.6,4.5C4.3,102,4,103.9,4,105.9c0,1.9,0.3,3.8,0.9,5.4c0.6,1.7,1.5,3.1,2.6,4.4c1.1,1.2,2.5,2.2,4.1,2.9
				c1.6,0.7,3.5,1.1,5.5,1.1c1.3,0,2.6-0.3,3.8-0.8c1.3-0.5,2.4-1.5,3.5-2.8l0.6,3h3.7v-14.4H17.5V109.1z"/>
			<path class="st2" d="M49.5,109c0,2-0.4,3.5-1.2,4.4c-0.8,0.9-2.2,1.4-4.3,1.4c-1.2,0-2.1-0.2-2.9-0.5c-0.7-0.3-1.3-0.8-1.7-1.3
				c-0.4-0.5-0.7-1.2-0.8-1.8c-0.1-0.7-0.2-1.4-0.2-2.1V92.4h-5.9V109c0,3.6,1,6.3,3,8.1c2,1.7,4.8,2.6,8.4,2.6
				c3.6,0,6.4-0.9,8.4-2.6c2-1.8,3-4.4,3-8.1V92.4h-5.9V109z"/>
			<rect x="45.3" y="85.1" class="st2" width="5" height="4.4"/>
			<rect x="37.7" y="85.1" class="st2" width="5" height="4.4"/>
			<path class="st2" d="M81.8,116.1c-0.1-0.6-0.1-1.2-0.1-1.8c0-0.6-0.1-1.1-0.1-1.5c-0.1-0.7-0.1-1.3-0.3-2
				c-0.1-0.7-0.4-1.3-0.7-1.8c-0.3-0.6-0.7-1-1.2-1.5c-0.5-0.4-1.1-0.7-1.8-0.9v-0.1c1.5-0.6,2.6-1.5,3.2-2.6c0.7-1.1,1-2.5,1-4.1
				c0-1-0.2-2-0.5-2.9c-0.4-0.9-0.9-1.7-1.6-2.3c-0.7-0.7-1.5-1.2-2.5-1.6c-1-0.4-2-0.6-3.2-0.6H59.7v26.7h5.9v-10.4h5.9
				c1.5,0,2.5,0.3,3.2,1c0.6,0.6,1.1,1.7,1.3,3.1c0.1,1.1,0.3,2.2,0.3,3.4c0.1,1.2,0.3,2.2,0.6,3h5.9c-0.3-0.4-0.5-0.8-0.6-1.4
				C81.9,117.2,81.8,116.6,81.8,116.1z M75,103.6c-0.7,0.6-1.7,0.9-3,0.9h-6.4V97H72c1.3,0,2.4,0.3,3,0.9c0.7,0.6,1,1.5,1,2.8
				C76,102,75.7,103,75,103.6z"/>
			<polygon class="st2" points="105,92.4 83.2,92.4 83.2,97.4 91.2,97.4 91.2,119.1 97,119.1 97,97.4 105,97.4 			"/>
			<polygon class="st2" points="111.2,92.4 101.1,119.1 107,119.1 109.1,113.2 110.6,108.8 114.1,99 114.2,99 117.5,108.8 
				119.1,113.2 121.1,119.1 127.2,119.1 117.2,92.4 			"/>
		</g>
		<g>
			<polygon class="st2" points="169.6,92.4 160.9,106 152.1,92.4 149.1,92.4 159.6,108.1 159.6,119.1 162.1,119.1 162.1,108.1 
				172.7,92.4 			"/>
			<polygon class="st2" points="178.5,92.4 167.8,119.1 170.5,119.1 173.7,110.8 174.5,108.7 179.8,95 185,108.7 185.9,110.8 
				189.1,119.1 191.8,119.1 181.4,92.4 			"/>
			<path class="st2" d="M211.9,94.4c-0.7-0.7-1.5-1.2-2.5-1.5c-1-0.3-2.1-0.5-3.3-0.5h-11.8v26.7h2.5v-11.4h9.3
				c1.2,0,2.3-0.2,3.3-0.5c1-0.3,1.8-0.8,2.5-1.5c0.7-0.7,1.2-1.5,1.6-2.4c0.4-0.9,0.6-2,0.6-3.2s-0.2-2.3-0.6-3.2
				C213.1,95.9,212.6,95.1,211.9,94.4z M209.9,104.2c-1.1,0.9-2.5,1.3-4.3,1.3h-8.7V94.6h8.7c1.8,0,3.2,0.4,4.3,1.3
				c1.1,0.9,1.6,2.3,1.6,4.1C211.5,101.9,210.9,103.3,209.9,104.2z"/>
			<rect x="217.3" y="92.4" class="st2" width="2.5" height="26.7"/>
		</g>
	</g>
</g>
<g>
	<path class="st2" d="M136,114.8c-0.6-0.2-1.1-0.4-1.5-0.7c-0.5-0.4-1-0.9-1.3-1.5c-0.3-0.6-0.5-1.4-0.5-2.3h-5.7
		c0,1.6,0.3,3.1,0.9,4.3c0.6,1.2,1.5,2.2,2.5,3c1.1,0.8,2.3,1.3,3.7,1.7c0.6,0.2,1.3,0.3,1.9,0.4V114.8z"/>
	<path class="st2" d="M148.6,107.5c-0.6-1-1.4-1.7-2.3-2.3c-0.9-0.6-1.8-1-2.6-1.3c-0.9-0.3-1.6-0.4-2.1-0.5c-1.7-0.4-3-0.8-4.1-1
		c-1-0.3-1.8-0.5-2.4-0.8c-0.6-0.3-1-0.6-1.2-0.9c-0.2-0.3-0.3-0.7-0.3-1.3c0-0.6,0.1-1,0.4-1.4c0.2-0.4,0.6-0.7,1-0.9
		c0.4-0.2,0.8-0.4,1.3-0.5c0.5-0.1,0.9-0.1,1.4-0.1c0.7,0,1.4,0.1,2,0.2c0.6,0.1,1.2,0.3,1.6,0.6c0.5,0.3,0.9,0.7,1.1,1.2
		c0.3,0.5,0.5,1.2,0.5,2h5.7c0-1.5-0.3-2.9-0.9-3.9c-0.6-1.1-1.4-2-2.4-2.7c-1-0.7-2.1-1.2-3.4-1.5c-1.3-0.3-2.6-0.5-4-0.5
		c-1.2,0-2.4,0.2-3.6,0.5c-1.2,0.3-2.3,0.8-3.2,1.5c-0.9,0.7-1.7,1.5-2.3,2.5c-0.6,1-0.9,2.2-0.9,3.6c0,1.2,0.2,2.3,0.7,3.1
		c0.5,0.9,1.1,1.6,1.8,2.1c0.7,0.6,1.6,1,2.5,1.4c0.9,0.4,1.9,0.7,2.9,0.9c1,0.3,1.9,0.5,2.9,0.7c0.9,0.2,1.8,0.5,2.5,0.8
		c0.7,0.3,1.4,0.7,1.8,1.1c0.5,0.4,0.7,1,0.7,1.8c0,0.7-0.2,1.2-0.5,1.7c-0.3,0.4-0.8,0.8-1.3,1c-0.5,0.2-1.1,0.4-1.7,0.5
		c-0.2,0-0.4,0.1-0.6,0.1v4.5c1.3-0.1,2.5-0.3,3.5-0.6c1.4-0.4,2.5-1,3.5-1.8c0.9-0.8,1.6-1.7,2.1-2.7c0.5-1,0.7-2.2,0.7-3.4
		C149.5,109.7,149.2,108.5,148.6,107.5z"/>
</g>
</svg>
