<?xml version="1.0" encoding="utf-8"?>
<!-- Generator: Adobe Illustrator 22.0.1, SVG Export Plug-In . SVG Version: 6.00 Build 0)  -->
<svg version="1.1" id="Layer_1" xmlns="http://www.w3.org/2000/svg" xmlns:xlink="http://www.w3.org/1999/xlink" x="0px" y="0px"
	 viewBox="0 0 1069.4 233.6" style="enable-background:new 0 0 1069.4 233.6;" xml:space="preserve">
<style type="text/css">
	.st0{fill:#A09D9B;}
	.st1{fill:#8EBF29;}
	.st2{fill:#0A84C5;}
</style>
<g id="XMLID_266_">
	<g id="XMLID_97_">
		<path id="XMLID_147_" class="st0" d="M50,201.7h0.1v-35.9h4.7V208H49l-26.8-36.2H22V208h-4.7v-42.1h5.9L50,201.7z"/>
		<path id="XMLID_145_" class="st0" d="M83.6,208h-5.1l19.9-42.1h4.6l19.8,42.1h-5.2l-5.1-11.1H88.6L83.6,208z M90.4,193h20.3
			l-10.1-22.4L90.4,193z"/>
		<path id="XMLID_142_" class="st0" d="M179.1,201.7h0.1v-35.9h4.7V208H178l-26.8-36.2h-0.1V208h-4.7v-42.1h5.9L179.1,201.7z"/>
		<path id="XMLID_139_" class="st0" d="M258.6,186.9c0,3.2-0.6,6.2-1.8,8.9c-1.2,2.7-2.9,5-5,7c-2.1,2-4.7,3.5-7.6,4.6
			c-2.9,1.1-6.1,1.7-9.5,1.7c-3.4,0-6.6-0.6-9.5-1.7c-2.9-1.1-5.5-2.6-7.6-4.6c-2.1-2-3.8-4.3-5-7c-1.2-2.7-1.8-5.6-1.8-8.9
			c0-3.2,0.6-6.2,1.8-8.9c1.2-2.7,2.9-5,5-7c2.1-2,4.7-3.5,7.6-4.6c2.9-1.1,6.1-1.7,9.5-1.7c3.4,0,6.6,0.6,9.5,1.7
			c2.9,1.1,5.5,2.6,7.6,4.6s3.8,4.3,5,7C258,180.8,258.6,183.7,258.6,186.9z M253.6,187c0-2.5-0.4-4.8-1.3-7
			c-0.9-2.2-2.1-4.2-3.8-5.8c-1.6-1.7-3.7-3-6-4c-2.4-1-5-1.5-8-1.5c-3,0-5.6,0.5-8,1.5c-2.4,1-4.4,2.3-6,4
			c-1.6,1.7-2.9,3.6-3.8,5.8c-0.9,2.2-1.3,4.6-1.3,7c0,2.5,0.4,4.8,1.3,7c0.9,2.2,2.1,4.2,3.8,5.8c1.6,1.7,3.7,3,6,4
			c2.4,1,5,1.5,8,1.5c2.9,0,5.6-0.5,8-1.5c2.4-1,4.4-2.3,6-4c1.6-1.7,2.9-3.6,3.8-5.8C253.2,191.7,253.6,189.4,253.6,187z"/>
		<path id="XMLID_137_" class="st0" d="M307.6,172.7c-1-1.3-2.3-2.3-3.8-3.1c-1.6-0.8-3.4-1.2-5.7-1.2c-1.1,0-2.3,0.2-3.4,0.5
			c-1.2,0.3-2.2,0.8-3.2,1.5c-1,0.7-1.7,1.5-2.3,2.5c-0.6,1-0.9,2.2-0.9,3.5c0,1.3,0.3,2.5,0.8,3.3c0.6,0.9,1.3,1.6,2.2,2.2
			c0.9,0.6,2,1.1,3.2,1.5c1.2,0.4,2.4,0.8,3.7,1.2c1.6,0.5,3.2,1,4.8,1.5c1.6,0.6,3.1,1.3,4.4,2.2c1.3,0.9,2.4,2,3.2,3.4
			c0.8,1.4,1.2,3.1,1.2,5.2c0,2.1-0.4,3.9-1.3,5.4c-0.9,1.5-2,2.8-3.4,3.8c-1.4,1-3,1.7-4.8,2.2c-1.8,0.5-3.6,0.7-5.4,0.7
			c-1.4,0-2.8-0.1-4.2-0.4c-1.4-0.3-2.7-0.6-4-1.2c-1.3-0.5-2.4-1.2-3.5-2c-1.1-0.8-2-1.7-2.9-2.7l4-2.7c1,1.5,2.4,2.8,4.2,3.8
			c1.8,1,3.9,1.5,6.3,1.5c1.2,0,2.4-0.2,3.6-0.5c1.2-0.3,2.3-0.9,3.3-1.5c1-0.7,1.8-1.5,2.4-2.6c0.6-1,0.9-2.2,0.9-3.5
			c0-1.5-0.3-2.7-0.9-3.7c-0.6-1-1.5-1.8-2.5-2.4s-2.2-1.2-3.6-1.6c-1.3-0.4-2.8-0.9-4.2-1.3c-1.5-0.4-3-0.9-4.5-1.5
			c-1.5-0.6-2.8-1.3-4-2.2c-1.2-0.9-2.1-2-2.8-3.3c-0.7-1.3-1.1-2.9-1.1-4.8c0-2,0.4-3.8,1.3-5.2c0.9-1.5,2-2.7,3.5-3.6
			c1.4-1,3-1.6,4.7-2.1c1.7-0.4,3.4-0.7,5.1-0.7c3.1,0,5.8,0.5,8,1.5c2.2,1,3.9,2.2,5,3.6L307.6,172.7z"/>
		<path id="XMLID_135_" class="st0" d="M343.5,208h-4.7v-42.1h4.7V208z"/>
		<path id="XMLID_133_" class="st0" d="M377.4,204.2h21.5v3.8h-26.2v-42.1h4.7V204.2z"/>
		<path id="XMLID_127_" class="st0" d="M433.4,202.4h0.1l15-36.6h5L435.9,208h-4.9l-17.6-42.1h5.1L433.4,202.4z"/>
		<path id="XMLID_125_" class="st0" d="M481.4,204.2h24.7v3.8h-29.3v-42.1h28.6v3.8h-23.9v14.4h22.3v3.8h-22.3V204.2z"/>
		<path id="XMLID_121_" class="st0" d="M536.8,208h-4.7v-42.1h13.5c2.3,0,4.3,0.2,6.3,0.6c1.9,0.4,3.6,1,5,1.9
			c1.4,0.9,2.5,2.1,3.3,3.5c0.8,1.4,1.2,3.2,1.2,5.2c0,1.5-0.3,3-0.9,4.2c-0.6,1.3-1.4,2.4-2.5,3.3c-1,0.9-2.3,1.7-3.7,2.2
			c-1.4,0.6-3,0.9-4.7,1.1l13.5,20h-5.7l-12.8-19.7h-7.8V208z M536.8,184.6h8.1c3.8,0,6.7-0.6,8.7-1.9c2-1.2,3.1-3.1,3.1-5.6
			c0-1.4-0.3-2.6-0.8-3.5c-0.6-1-1.3-1.7-2.3-2.3c-1-0.6-2.2-1-3.6-1.3c-1.4-0.3-3-0.4-4.7-0.4h-8.3V184.6z"/>
		<path id="XMLID_118_" class="st0" d="M621.2,165.9h4.7v18.3H651v-18.3h4.7V208H651v-19.9h-25.1V208h-4.7V165.9z"/>
		<path id="XMLID_116_" class="st0" d="M700.7,208H696v-18.1l-17.2-24h5.9l13.9,20.4l14-20.4h5.5l-17.2,24V208z"/>
		<path id="XMLID_115_" class="st0" d="M774.3,173.5c-1.6-1.5-3.5-2.7-5.7-3.6c-2.2-0.9-4.7-1.3-7.6-1.3c-3,0-5.6,0.5-8,1.5
			c-2.4,1-4.4,2.3-6,4c-1.6,1.7-2.9,3.6-3.8,5.8c-0.9,2.2-1.3,4.6-1.3,7c0,2.5,0.4,4.8,1.3,7c0.9,2.2,2.2,4.2,3.8,5.8
			c1.6,1.7,3.7,3,6,4c2.4,1,5,1.5,8,1.5c2.6,0,5-0.3,7.2-0.8c2.2-0.5,3.9-1.2,5.3-2v-12.8h-10.7v-3.8h15.4v19
			c-2.5,1.4-5.2,2.4-8.1,3.1c-2.9,0.7-5.9,1-9,1c-3.5,0-6.7-0.6-9.6-1.7c-3-1.1-5.5-2.6-7.6-4.6c-2.1-2-3.8-4.3-5-7
			c-1.2-2.7-1.8-5.6-1.8-8.9c0-3.2,0.6-6.2,1.8-8.9c1.2-2.7,2.9-5,5-7s4.7-3.5,7.6-4.6c2.9-1.1,6.1-1.7,9.5-1.7
			c3.7,0,6.9,0.5,9.6,1.5c2.7,1,5.1,2.4,7,4.2L774.3,173.5z"/>
		<path id="XMLID_113_" class="st0" d="M811.6,208H807v-42.1h4.7V208z"/>
		<path id="XMLID_109_" class="st0" d="M845.5,204.2h24.7v3.8h-29.3v-42.1h28.6v3.8h-23.9v14.4h22.3v3.8h-22.3V204.2z"/>
		<path id="XMLID_107_" class="st0" d="M928.9,201.7h0.1v-35.9h4.7V208h-5.9L901,171.8h-0.1V208h-4.7v-42.1h5.9L928.9,201.7z"/>
		<path id="XMLID_100_" class="st0" d="M967.5,204.2h24.7v3.8h-29.3v-42.1h28.6v3.8h-23.9v14.4h22.3v3.8h-22.3V204.2z"/>
		<path id="XMLID_98_" class="st0" d="M1035.8,188.2h14.6v3.6h-14.6v13.4h-3.9v-13.4h-14.6v-3.6h14.6v-13.4h3.9V188.2z"/>
	</g>
	<g id="XMLID_95_">
		<g id="XMLID_71_">
			<path id="XMLID_74_" class="st1" d="M33.2,77.4h0.3l50.8-45.9h22L51.1,79.2l58.7,56.4H86.9L33.5,81.8h-0.3v53.8H17.3V31.5h15.9
				V77.4z"/>
			<path id="XMLID_72_" class="st1" d="M156.9,122.7h50.8v12.9h-66.7V31.5h15.9V122.7z"/>
		</g>
	</g>
	<g id="XMLID_312_">
		<g id="XMLID_47_">
			<path id="XMLID_48_" class="st1" d="M548.2,114.7h0.3V31.5h15.9v104.1h-20.1l-60.1-85h-0.3v85H468V31.5h20.7L548.2,114.7z"/>
		</g>
	</g>
	<g id="XMLID_305_">
		<g id="XMLID_42_">
			<path id="XMLID_44_" class="st2" d="M648.1,135.6h-15.9V44.3h-36.5V31.5h88.9v12.8h-36.5V135.6z"/>
		</g>
	</g>
	<g id="XMLID_294_">
		<g id="XMLID_57_">
			<path id="XMLID_61_" class="st2" d="M929.6,119.4c-4.5,5.6-10.3,10.1-17.5,13.6c-7.2,3.5-15.8,5.2-25.9,5.2c-8.7,0-16.7-1.3-24-4
				c-7.3-2.7-13.7-6.5-19-11.3c-5.3-4.9-9.5-10.6-12.5-17.3c-3-6.7-4.5-14.1-4.5-22.1c0-8.1,1.5-15.6,4.6-22.3
				c3.1-6.7,7.3-12.4,12.7-17.2c5.4-4.8,11.8-8.5,19.2-11.1c7.4-2.6,15.4-4,24.1-4c3.9,0,7.8,0.3,11.7,1c4,0.7,7.8,1.7,11.4,3.1
				c3.6,1.4,7,3.1,10,5.1c3,2,5.6,4.3,7.7,7l-12.5,8.8c-2.8-3.5-6.7-6.4-11.8-8.7c-5.1-2.3-10.6-3.5-16.5-3.5
				c-6.6,0-12.6,1.1-17.9,3.3c-5.3,2.2-9.8,5.2-13.6,9c-3.8,3.8-6.6,8.3-8.7,13.3c-2,5-3.1,10.4-3.1,16.1c0,5.9,1,11.4,3,16.5
				c2,5.1,4.8,9.5,8.5,13.3c3.7,3.8,8.2,6.7,13.5,8.9c5.3,2.2,11.2,3.2,17.8,3.2c6.4,0,12.3-1.2,17.5-3.5c5.3-2.4,9.6-5.8,13-10.3
				L929.6,119.4z"/>
			<path id="XMLID_58_" class="st2" d="M963.5,31.5h15.9V75h57.6V31.5h16.1v104.1H1037V88h-57.6v47.6h-15.9V31.5z"/>
		</g>
	</g>
	<rect id="XMLID_291_" x="241.2" y="75.2" class="st1" width="71.1" height="12.5"/>
	<rect id="XMLID_288_" x="241.2" y="31.6" class="st1" width="71.1" height="12.5"/>
	<rect id="XMLID_285_" x="241.2" y="122.9" class="st1" width="71.1" height="12.5"/>
	<rect id="XMLID_282_" x="717.3" y="75.2" class="st2" width="71.1" height="12.5"/>
	<rect id="XMLID_279_" x="717.3" y="31.6" class="st2" width="71.1" height="12.5"/>
	<rect id="XMLID_276_" x="717.3" y="122.9" class="st2" width="71.1" height="12.5"/>
	<rect id="XMLID_273_" x="355.3" y="75.2" class="st1" width="71.1" height="12.5"/>
	<rect id="XMLID_270_" x="355.3" y="31.6" class="st1" width="71.1" height="12.5"/>
	<rect id="XMLID_267_" x="355.3" y="122.9" class="st1" width="71.1" height="12.5"/>
</g>
</svg>
