<?xml version="1.0" encoding="utf-8"?>
<!-- Generator: Adobe Illustrator 22.0.1, SVG Export Plug-In . SVG Version: 6.00 Build 0)  -->
<svg version="1.1" id="Layer_1" xmlns="http://www.w3.org/2000/svg" xmlns:xlink="http://www.w3.org/1999/xlink" x="0px" y="0px"
	 viewBox="0 0 734.9 359.9" style="enable-background:new 0 0 734.9 359.9;" xml:space="preserve">
<style type="text/css">
	.st0{fill-rule:evenodd;clip-rule:evenodd;fill:#35322F;}
	.st1{fill-rule:evenodd;clip-rule:evenodd;fill:#E84C0F;}
	.st2{fill:#35322F;}
</style>
<g>
	<g>
		<g>
			<g>
				<g>
					<polygon class="st0" points="429.8,107.6 335.2,13 304.1,44.2 304.1,44.2 177.1,171.1 208.2,202.2 335.2,75.3 398.6,138.8 
											"/>
				</g>
			</g>
			<g>
				<g>
					<path class="st1" d="M555,108.1l0.8-0.8l-93.9-94l-31.1,31.2L303.8,171.5l31.1,31.1l64-64l62.7,62.8l31.2-31.2l0,0l62.3-62
						L555,108.1z M430.2,107.5l31.7-31.7l31.6,31.6l-31.9,31.6L430.2,107.5z"/>
				</g>
			</g>
		</g>
	</g>
	<g>
		<path class="st2" d="M199.8,303.4c-4.3-4.9-9.8-7.5-16-9.1c-7.2-1.8-14.5-3.1-21.4-6c-5.2-2.2-6.1-7.9-2-11.8
			c3.4-3.3,7.8-3.4,12.2-3.1c7.3,0.5,10.8,3.4,12.3,10.3c0.3,1.4,1,1.3,1.9,1.3c4.2,0,8.5-0.1,12.7,0c1.5,0,1.9-0.4,1.8-1.9
			c-0.3-5.4-2.1-10.2-5.9-14.2c-5.4-5.6-12.3-7.5-19.6-8.4c0,0-3-0.3-4.9-0.3s-5,0.3-5,0.3c-4,0.5-7.9,1.4-11.5,3.3
			c-8.8,4.6-13.5,11.7-12.5,21.9c0.8,9,6.7,13.7,14.3,16.7c4.4,1.8,9.1,2.8,13.7,4c4.9,1.2,9.9,2.1,14.2,5c4.9,3.2,4.9,9.5,0.2,13
			c-1.9,1.4-4,2.2-6.3,2.5c-0.9,0.1-1.8,0.2-1.8,1.6c0.1,3.9,0,7.7,0,11.6c8.5-0.9,12.3-2.1,17-4.8
			C205.8,328.2,206.5,310.9,199.8,303.4z"/>
		<path class="st2" d="M64.6,338.6c3.2-8.4,6.3-16.6,9.4-24.8c6.2-16.3,12.5-32.6,18.6-49c0.7-1.9,1.6-2.7,3.7-2.6
			c4.3,0.2,8.7,0.1,13,0c1,0,1.8,0,2.3,1.3c9.3,24.8,18.6,49.5,27.9,74.2c0.1,0.2,0,0.4,0,0.8c-5.4,0-10.8,0-16.2,0
			c-1.4,0-1.3-1-1.6-1.8c-5.6-16.2-11.2-32.3-16.9-48.5c-0.8-2.3-1.6-4.6-2.7-7.7c-2.1,5.7-3.9,10.7-5.7,15.8
			c-4.7,13.1-9.3,26.2-13.9,39.3c-0.7,2.1-1.6,3-4,2.9C74,338.4,69.4,338.6,64.6,338.6z"/>
		<path class="st2" d="M241.6,281.2c-2.6,7.4-5.3,14.7-7.9,22c-3.9,10.9-7.8,21.9-11.6,32.8c-0.7,2-1.6,2.7-3.7,2.6
			c-3.8-0.2-7.6-0.3-11.3,0c-3,0.2-2.7-0.8-1.9-3c6.5-16.9,12.9-33.8,19.4-50.7c2.6-6.8,5.3-13.6,7.8-20.5c0.6-1.8,1.5-2.3,3.3-2.3
			c4.4,0.1,8.8,0.1,13.3,0c1.4,0,1.9,0.5,2.4,1.7c9.1,24.2,18.2,48.4,27.3,72.6c0.7,1.8,0.4,2.2-1.4,2.1c-4.2-0.1-8.5-0.2-12.7,0
			c-2,0.1-2.8-0.6-3.5-2.5c-5.9-17.4-12-34.7-18-52.1C242.7,283.2,242.6,282.1,241.6,281.2z"/>
		<path class="st2" d="M282.8,300.3c0-11.9,0-23.8,0-35.7c0-1.9,0.4-2.5,2.4-2.5c4,0.2,7.9,0.2,11.9,0c2.1-0.1,2.6,0.5,2.6,2.6
			c-0.1,19,0,38-0.1,57c0,2.5,0.6,3.1,3.1,3c10.8-0.1,21.6,0,32.3-0.1c1.7,0,2.4,0.4,2.3,2.2c-0.2,3.2-0.1,6.5,0,9.7
			c0,1.5-0.2,2.1-1.9,2.1c-16.9-0.1-33.7-0.1-50.6,0c-2.1,0-1.9-1.1-1.9-2.4C282.9,324.3,282.8,312.3,282.8,300.3z"/>
		<path class="st2" d="M433.1,325c-4.2,7.8-10.2,12.5-18.5,14.3c-19,4.1-37.7-5.2-42.8-25.7c-3.3-13.2-2.4-26.1,5.1-37.9
			c6.1-9.6,15.3-14.3,26.4-15.1c7.8-0.6,15.4,0.7,22.2,5c6.8,4.3,10.8,10.5,12.7,18.3c0.4,1.5,0.2,2.6-1.8,2.2
			c-0.4-0.1-0.7-0.1-1.1,0c-2.9,0.5-4.1-0.4-4.9-3.5c-2.5-8.6-12.6-15.4-22.1-15.9c-17.1-0.8-27.5,9.8-30.2,25.2
			c-1.9,10.6-1,20.9,5.1,30.2c6.3,9.8,15.8,13.1,26.9,11.9c10.9-1.2,18.5-7.1,21.8-17.8c0.8-2.6,1-5.2,1.4-7.9
			c0.3-1.8-0.3-2.4-2.2-2.4c-7.3,0.1-14.6,0-21.8,0.1c-1.9,0-2.5-0.4-2.5-2.4c0.1-3.8,0-3.8,3.8-3.8c8.9,0,17.9,0,26.8,0
			c1.7,0,2.2,0.4,2.2,2.1c-0.1,11.5-0.1,23,0,34.6c0,1.3,0,2.5-1.8,2.1c-1.3-0.3-3.2,1-3.5-1.9C433.9,332.9,434.3,329.1,433.1,325z"
			/>
		<path class="st2" d="M344.3,300.2c0-11.9,0.1-23.8,0-35.6c0-2,0.5-2.5,2.4-2.4c4,0.2,8.1,0.1,12.2,0c1.6,0,2.2,0.3,2.2,2.1
			c-0.1,24.1-0.1,48.2,0,72.4c0,1.6-0.5,2-2,2c-4.2-0.1-8.5-0.1-12.7,0c-1.9,0.1-2-0.7-2-2.2C344.3,324.3,344.3,312.3,344.3,300.2z"
			/>
		<path class="st2" d="M660.6,289.4c0-8.2,0.1-16.4,0-24.6c0-1.9,0.2-2.7,2.5-2.7c4.8,0.2,4.8,0,4.8,4.9c0,14.6,0,29.3,0,43.9
			c0,3.1,0.4,6.1,1.2,9c2.4,8.6,9,13.5,18.5,14.1c3.5,0.2,7,0.1,10.4-0.7c8.3-2,13.5-7.9,14.7-16.5c0.4-2.9,0.5-5.9,0.5-8.8
			c0-14.4,0-28.7-0.1-43.1c0-2.1,0.4-2.8,2.7-2.7c4.7,0.2,4.7,0,4.7,4.8c0,15.3,0,30.6-0.1,45.9c-0.1,15.1-9.3,25.1-24.3,26.9
			c-5.5,0.7-10.9,0.5-16.1-0.9c-12.6-3.5-18.5-12.6-19.2-24.9C660.3,305.8,660.7,297.6,660.6,289.4
			C660.7,289.4,660.6,289.4,660.6,289.4z"/>
		<path class="st2" d="M579.6,290.6c-0.2,7.2,0.3,16.2-0.2,25.1c-0.9,13.1-10.5,22.7-23.6,24.1c-6.6,0.7-13,0.5-19.2-1.8
			c-10.1-3.8-15.3-11.4-16.3-21.8c-1.3-12.9-0.3-25.9-0.5-38.9c-0.1-4.3,0-8.7,0-13c0-1.5,0.3-2,1.9-2.1c5.5-0.1,5.5-0.1,5.5,5.4
			c0,14.3,0,28.6,0,42.8c0,4.6,0.6,9.2,2.6,13.4c3.4,7,9.5,9.6,16.8,10.3c3.7,0.3,7.4,0.2,11-0.7c9-2.3,14.4-9.1,14.8-18.9
			c0.7-16.4,0.2-32.8,0.2-49.2c0-2.5,0.6-3.3,3.1-3.1c4.1,0.2,4.1,0.1,4.1,4C579.6,273.8,579.6,281.3,579.6,290.6z"/>
		<path class="st2" d="M147.2,313.4c2.1,0,4.2,0.1,6.3,0c1.5-0.1,2,0.6,2.1,1.9c0.5,5.3,3.4,8.8,8.3,10.6c1.2,0.4,1.5,1.1,1.5,2.3
			c0,3.3-0.1,6.6,0,9.9c0.1,1.6-0.7,1.9-2,1.6c-11.6-2-22.4-8.5-24.3-22.7c-0.4-3.4-0.4-3.5,3.1-3.5
			C143.9,313.4,145.6,313.4,147.2,313.4z"/>
		<path class="st2" d="M49,262.3c-12.5-0.5-25-0.1-37.6-0.1c0,25.4,0,50.8,0,76.3c4.8,0,9.6-0.1,14.4,0.1c1.8,0.1,2.3-0.5,2.3-2.3
			c-0.1-7.5,0.1-14.9-0.1-22.4c0-2.4,0.7-2.9,2.9-2.8c5.1,0.2,10.1,0,15.2,0.1c15.9,0.1,25-8.7,26.3-21
			C74.1,274.3,64.9,262.9,49,262.3z M47.3,297.7c-3.4,0.7-6.8,0.4-9.7,0.5c-2.8,0-5.2-0.1-7.6,0c-1.4,0-2-0.3-2-1.8
			c0.1-6.5,0.1-13.1,0-19.6c0-1.3,0.4-1.8,1.8-1.8c5.8,0.1,11.6-0.3,17.4,0.5c5.5,0.8,9,4.7,9.1,10
			C56.2,292.9,53.5,296.5,47.3,297.7z"/>
		<path class="st2" d="M646.8,303.3c-2.9-2.6-6.2-4-10.6-5.1c1.1-0.5,1.6-0.8,2.1-1c12.4-4.6,14.1-21.9,5.8-29.3
			c-4.8-4.3-10.7-5.6-16.8-5.7c-11-0.2-21.9,0-32.9-0.1c-1.9,0-2.4,0.5-2.4,2.4c0.1,23.9,0.1,47.7,0,71.6c0,1.9,0.5,2.4,2.4,2.4
			c11-0.1,21.9,0,32.9-0.1c4.7,0,9.3-1.1,13.6-2.9C654.6,329.9,654.8,310.3,646.8,303.3z M600.9,268.3c4.5,0.1,9,0,14.5,0
			c4.3,0.3,9.6-0.5,14.8,0.5c8.4,1.7,12.1,6.3,11.7,14.9c-0.3,6.1-5.8,11.2-13.2,11.8c-9.3,0.7-18.6,0.1-27.9,0.3
			c-1.4,0-1.7-0.6-1.6-1.8c0-8,0-16,0-24C599.2,268.6,599.7,268.2,600.9,268.3z M631.9,331.9c-5.7,1-11.6,0.4-16.2,0.6
			c-5.6,0-10.2-0.1-14.7,0c-1.4,0-1.9-0.3-1.9-1.8c0.1-9,0.1-18,0-27c0-1.6,0.5-2,2-2c9.3,0.2,18.6-0.2,27.9,0.4
			c7.6,0.5,13.4,4.1,15.1,9.9C646.7,320.8,643.4,329.9,631.9,331.9z"/>
		<path class="st2" d="M509.6,333.2c-1.3-5.4-0.9-11-1.5-16.4c-0.9-8.5-4-12.5-12.6-14.9c0.6-0.4,1-0.7,1.4-0.8
			c13.6-3.5,15.5-21.3,10.2-29.5c-4.4-6.8-11.1-9.1-18.7-9.2c-11.5-0.2-23,0-34.6-0.1c-2.3,0-2.9,0.5-2.9,2.8
			c0.1,22.9,0.1,45.7,0.1,68.6c0,5.1,0,5,5,5c1.8,0,2.3-0.5,2.3-2.3c-0.1-9.7,0-19.4-0.1-29c0-2.1,0.6-2.6,2.6-2.6
			c8.8,0,17.7,0.2,26.5-0.1c6.2-0.2,10.3,2.9,12.5,8.8c0.9,2.3,1.3,4.8,1.5,7.2c0.4,4.6,0.7,9.2,1.1,13.7c0.4,3.9,0.8,4.1,4.7,4.1
			c1.3,0,2.7,0,4.2,0C510.8,336.6,510,334.9,509.6,333.2z M468.2,298.5c-2.7,0.1-5.3,0-8,0c-1.4,0-1.9-0.4-1.9-1.9
			c0.1-8.9,0.1-17.9,0-26.8c0-1.4,0.6-1.6,1.8-1.6c4.8,0,9.6,0,14.4,0c0,0,0,0.1,0,0.1c5.1,0,10.2-0.4,15.2,0.1
			c8.4,0.8,12.9,6.3,12.9,14.9c0,7.7-5.3,13.9-13.1,14.8C482.4,299,475.3,298.4,468.2,298.5z"/>
	</g>
</g>
</svg>
