<?xml version="1.0" encoding="utf-8"?>
<!-- Generator: Adobe Illustrator 22.0.1, SVG Export Plug-In . SVG Version: 6.00 Build 0)  -->
<svg version="1.1" id="Layer_1" xmlns="http://www.w3.org/2000/svg" xmlns:xlink="http://www.w3.org/1999/xlink" x="0px" y="0px"
	 viewBox="0 0 611.2 238.6" style="enable-background:new 0 0 611.2 238.6;" xml:space="preserve">
<style type="text/css">
	.st0{clip-path:url(#SVGID_2_);fill:url(#SVGID_3_);}
	.st1{clip-path:url(#SVGID_5_);fill:url(#SVGID_6_);}
	.st2{clip-path:url(#SVGID_8_);fill:url(#SVGID_9_);}
	.st3{clip-path:url(#SVGID_11_);fill:url(#SVGID_12_);}
	.st4{clip-path:url(#SVGID_14_);fill:#1D71B8;}
	.st5{clip-path:url(#SVGID_14_);fill:#EA5B0C;}
</style>
<g>
	<defs>
		<polygon id="SVGID_1_" points="80.2,46.4 45.2,81.4 80.2,116.4 		"/>
	</defs>
	<clipPath id="SVGID_2_">
		<use xlink:href="#SVGID_1_"  style="overflow:visible;"/>
	</clipPath>
	
		<linearGradient id="SVGID_3_" gradientUnits="userSpaceOnUse" x1="-126.668" y1="339.25" x2="-125.668" y2="339.25" gradientTransform="matrix(35.0469 -35.0469 -35.0469 -35.0469 16382.9023 7540.501)">
		<stop  offset="0" style="stop-color:#F39200"/>
		<stop  offset="1.549333e-02" style="stop-color:#F28E00"/>
		<stop  offset="0.102" style="stop-color:#EF7C00"/>
		<stop  offset="0.204" style="stop-color:#ED6D05"/>
		<stop  offset="0.3304" style="stop-color:#EC6309"/>
		<stop  offset="0.5077" style="stop-color:#EB5C0B"/>
		<stop  offset="1" style="stop-color:#EA5B0C"/>
	</linearGradient>
	<polygon class="st0" points="10.1,81.4 62.7,28.8 115.3,81.4 62.7,134 	"/>
</g>
<g>
	<defs>
		<polygon id="SVGID_4_" points="10.1,116.4 80.2,116.4 45.2,81.4 		"/>
	</defs>
	<clipPath id="SVGID_5_">
		<use xlink:href="#SVGID_4_"  style="overflow:visible;"/>
	</clipPath>
	
		<linearGradient id="SVGID_6_" gradientUnits="userSpaceOnUse" x1="-126.6681" y1="339.25" x2="-125.6681" y2="339.25" gradientTransform="matrix(35.0436 -35.0436 -35.0436 -35.0436 16346.3438 7574.8535)">
		<stop  offset="0" style="stop-color:#EA5B0C"/>
		<stop  offset="0.4923" style="stop-color:#EB5C0B"/>
		<stop  offset="0.6696" style="stop-color:#EC6309"/>
		<stop  offset="0.796" style="stop-color:#ED6D05"/>
		<stop  offset="0.898" style="stop-color:#EF7C00"/>
		<stop  offset="0.9845" style="stop-color:#F28E00"/>
		<stop  offset="1" style="stop-color:#F39200"/>
	</linearGradient>
	<polygon class="st1" points="-7.4,98.9 45.2,46.4 97.7,98.9 45.2,151.5 	"/>
</g>
<g>
	<defs>
		<polygon id="SVGID_7_" points="34.1,9.2 69.2,44.2 34.1,79.3 		"/>
	</defs>
	<clipPath id="SVGID_8_">
		<use xlink:href="#SVGID_7_"  style="overflow:visible;"/>
	</clipPath>
	
		<linearGradient id="SVGID_9_" gradientUnits="userSpaceOnUse" x1="-126.668" y1="338.75" x2="-125.668" y2="338.75" gradientTransform="matrix(35.0454 -35.0454 -35.0454 -35.0454 16336.0918 7502.9927)">
		<stop  offset="0" style="stop-color:#1D71B8"/>
		<stop  offset="0.4601" style="stop-color:#1D72B9"/>
		<stop  offset="0.6259" style="stop-color:#1E76BC"/>
		<stop  offset="0.744" style="stop-color:#1F7EC2"/>
		<stop  offset="0.8395" style="stop-color:#2288CA"/>
		<stop  offset="0.9204" style="stop-color:#2A96D4"/>
		<stop  offset="0.9917" style="stop-color:#35A7DF"/>
		<stop  offset="1" style="stop-color:#36A9E1"/>
	</linearGradient>
	<polygon class="st2" points="-0.9,44.2 51.6,-8.4 104.2,44.2 51.6,96.8 	"/>
</g>
<g>
	<defs>
		<polygon id="SVGID_10_" points="104.2,9.2 34.1,9.2 69.2,44.2 		"/>
	</defs>
	<clipPath id="SVGID_11_">
		<use xlink:href="#SVGID_10_"  style="overflow:visible;"/>
	</clipPath>
	
		<linearGradient id="SVGID_12_" gradientUnits="userSpaceOnUse" x1="-126.668" y1="338.75" x2="-125.668" y2="338.75" gradientTransform="matrix(35.0457 -35.0457 -35.0457 -35.0457 16371.3105 7468.0322)">
		<stop  offset="0" style="stop-color:#36A9E1"/>
		<stop  offset="8.324981e-03" style="stop-color:#35A7DF"/>
		<stop  offset="7.962543e-02" style="stop-color:#2A96D4"/>
		<stop  offset="0.1605" style="stop-color:#2288CA"/>
		<stop  offset="0.256" style="stop-color:#1F7EC2"/>
		<stop  offset="0.3741" style="stop-color:#1E76BC"/>
		<stop  offset="0.5399" style="stop-color:#1D72B9"/>
		<stop  offset="1" style="stop-color:#1D71B8"/>
	</linearGradient>
	<polygon class="st3" points="16.6,26.7 69.2,-25.9 121.7,26.7 69.2,79.3 	"/>
</g>
<g>
	<defs>
		<rect id="SVGID_13_" x="-126.7" y="-100.4" width="864.6" height="439.4"/>
	</defs>
	<clipPath id="SVGID_14_">
		<use xlink:href="#SVGID_13_"  style="overflow:visible;"/>
	</clipPath>
	<path class="st4" d="M125.9,121.1V138h-21.8v34c0,10.5,4.8,12.8,12.8,12.8c2.8,0,6.7-0.6,7.6-1v16c-1.2,0.6-5.2,1.9-12.2,1.9
		c-16.2,0-27.5-7.3-27.5-27.6V138h-12v-16.9h12V98.8h19.3v22.3H125.9z"/>
	<path class="st4" d="M173.9,119.3V138h-3.3c-10.4,0-15.9,4.8-18.3,8.3v53.4H133v-56.4l-1.3-22.3h17.1l1.6,9.5
		c4.5-6.5,11.6-11.4,21.2-11.4C172.5,119.2,173.4,119.3,173.9,119.3"/>
	<path class="st4" d="M173.4,162.8V158c0-22.6,11-38.9,35.6-38.9s35.6,16.3,35.6,38.9v4.8c0,22.4-11,38.9-35.6,38.9
		S173.4,185.2,173.4,162.8 M225.4,162.8V158c0-13.7-5-22.1-16.3-22.1c-11.3,0-16.3,8.5-16.3,22.1v4.8c0,13.5,5,22,16.3,22
		C220.3,184.8,225.4,176.3,225.4,162.8"/>
	<path class="st4" d="M299.5,199.8V149c0-7.6-3.7-13.1-12.5-13.1c-9.1,0-14.1,5.3-16.3,9.1v54.8h-19.3v-56.4l-1.3-22.3h17.1
		l1.8,10.4c4.9-7.1,13.1-12.3,25.5-12.3c17.2,0,24.2,12.5,24.2,26.7v53.9H299.5z"/>
	<path class="st4" d="M373.4,190.7c-5.5,6.4-14,11-25.7,11c-16.6,0-23.8-10.5-23.8-23.2V177c0-17.1,12.2-22.4,27.5-24.6l20-3.1V149
		c0-9.9-3.1-14.8-13.1-14.8c-10.7,0-13.1,6.1-13.1,12.9h-18.4v-1.3c0-13.2,6.8-26.6,31.9-26.6c24.5,0,31.9,11.4,31.9,29.8v28.5
		l1.2,22.3h-17.1L373.4,190.7z M371.5,177.6V161l-16.5,2.7c-8.2,1.3-11.7,5.2-11.7,11.3v1.2c0,4.9,3.3,9.6,11.1,9.6
		C363.4,185.8,368.9,181.1,371.5,177.6"/>
	<path class="st5" d="M411.5,190.9v38.6h-10.4v-86.1l-0.9-22.3h8.6l1.5,10.7c4.2-6.7,11.4-12.3,23.5-12.3
		c21.5,0,30.1,17.4,30.1,39.2v3.6c0,21.8-8.6,39.2-30.1,39.2C422.8,201.4,415.7,196.8,411.5,190.9 M411.5,179.9
		c3.1,5.2,9.2,12.2,19.9,12.2c14.8,0,21.8-11.6,21.8-29.8v-3.6c0-18.3-7-29.8-21.8-29.8c-10.7,0-16.8,7-19.9,12.2V179.9z"/>
	<path class="st5" d="M520.8,188.8c-5.2,6.8-14.1,12.6-27.8,12.6c-14.4,0-22.7-8.9-22.7-21.5v-1.5c0-17.1,12.9-22,25.7-23.9
		l23.8-3.7v-2.1c0-13.5-4.3-20.5-18.3-20.5c-14.8,0-18.3,8.6-18.3,18.9h-9.9v-1.3c0-11.9,5.2-26.3,28.4-26.3
		c21.8,0,28.5,11.9,28.5,29.2v28.8l0.9,22.3h-8.6L520.8,188.8z M519.8,179.9v-21.5l-22.9,3.7c-10.1,1.8-16.2,6.7-16.2,15.6v1.3
		c0,7,4.5,13.4,15,13.4C510.3,192.3,516.9,184.5,519.8,179.9"/>
	<polygon class="st5" points="590,121.1 601.1,121.1 572.9,196.8 561.8,229.5 549.7,229.5 562.1,196.8 533.9,121.1 545,121.1 
		567.4,185.4 	"/>
</g>
</svg>
