<?xml version="1.0" encoding="utf-8"?>
<!-- Generator: Adobe Illustrator 22.0.1, SVG Export Plug-In . SVG Version: 6.00 Build 0)  -->
<svg version="1.1" xmlns="http://www.w3.org/2000/svg" xmlns:xlink="http://www.w3.org/1999/xlink" x="0px" y="0px"
	 viewBox="0 0 1420.9 1417.6" style="enable-background:new 0 0 1420.9 1417.6;" xml:space="preserve">
<style type="text/css">
	.st0{display:none;}
	.st1{display:inline;}
	.st2{fill:#DDD9D9;stroke:#000000;stroke-width:1.4469;stroke-miterlimit:10;}
	.st3{fill:none;stroke:#000000;stroke-width:2.1704;stroke-linejoin:round;}
	.st4{fill:none;stroke:#000000;stroke-width:1.3405;stroke-linejoin:round;}
	.st5{fill:none;stroke:#000000;stroke-width:1.4469;stroke-miterlimit:10;}
	.st6{fill:#FFFFFF;stroke:#000000;stroke-width:2.0246;stroke-miterlimit:10;}
	.st7{fill:none;stroke:#000000;stroke-width:1.8087;stroke-miterlimit:10;}
	.st8{fill:none;stroke:#000000;stroke-width:2.1704;stroke-linecap:round;stroke-miterlimit:10;}
	.st9{display:none;fill:#d60000;}
	.st10{fill:#d60000;}
</style>
<g id="_x2014_ÎÓÈ_x5F_1" class="st0">
	<g class="st1">
		<path class="st2" d="M535.4,960.6l-27.4,98.6c30,7.6,65.6,14,104.7,17.5c29,2.6,56.1,2.7,80.3,2.1c19.8-0.5,50.6,0.4,79.5-2.2
			c39.2-3.5,74.2-10,104.2-17.6l-32.4-96.7c-0.4,8.8-114.3,19.6-152.3,19.8c-39.2,0.2-129.2-8.9-156.8-21.9
			C535.4,960.3,535.4,960.4,535.4,960.6z"/>
		<path class="st3" d="M843.7,607c13.9-49.8,27.8-99.7,41.6-149.5c-0.5-52.4-4.5-110.9-14.4-173.9c-1.4-8.8-2.9-17.5-4.4-26.1
			c-4.9-27.3-27.1-47.6-53.7-49.2c0,0-90-7.1-120-7.1c-29.9,0-89.5,5.4-119.4,7.1c-26.6,1.6-48.8,21.8-53.7,49.2
			c-1.5,8.6-3,17.2-4.4,26.1c-9.9,63-13.9,121.5-14.4,173.9c13.9,49.8,27.8,99.7,41.6,149.5"/>
		<path class="st3" d="M703.7,201.3c34.2,0,68.3,0,102.5,0l-12.6-22.1c-3.8-6.7,0.8-15.3,8.3-15.3h100.6c-0.3-13.8-1.8-31-6.4-50.1
			c-2.2-9-4.7-17.2-7.4-24.6c-1.9-5.2-6.7-8.7-12.1-8.7H692.7h0.7l-183.9,0c-5.4,0-10.2,3.4-12.1,8.7c-2.7,7.4-5.2,15.6-7.4,24.6
			c-4.6,19.1-6.2,36.3-6.4,50.1l100.6,0c7.5,0,12.1,8.5,8.3,15.3l-12.6,22.1c34.2,0,68.3,0,102.5,0"/>
		<g>
			<g>
				<path class="st3" d="M290,444.5c-37.3,0-67.6-31-67.6-69.2c0-38.2,30.2-69.2,67.6-69.2c37.3,0,67.6,31,67.6,69.2
					C357.6,413.5,327.4,444.5,290,444.5z"/>
				<ellipse class="st4" cx="290" cy="375.3" rx="51.3" ry="52.6"/>
			</g>
			<g>
				<ellipse class="st3" cx="289.8" cy="987.1" rx="67.6" ry="69.2"/>
				<ellipse class="st4" cx="289.8" cy="987.1" rx="51.3" ry="52.6"/>
			</g>
			<path class="st3" d="M260.5,291.1v-84.8c9.3-5.4,24.9-13,45.6-16.3c20.5-3.3,37.5-1.2,48,1c6.5,2.5,13.8,5.8,21.4,10.1
				c4.5,2.5,8.6,5,12.3,7.5c5,3.3,8.7,8.2,10.4,13.9c6.9,23,13.5,47,19.7,72.1c11.4,45.9,20,89.7,26.6,130.8
				c11.6,21.1,32.3,58.9,49.8,92.1c24.2,46.2,37,74.2,46.5,99c10.9,34.2,17.4,109,18.2,145.7c0.7,29.7-1.4,83.8-4.6,139.7
				c-0.6,10-3.8,24-10.1,41c-1.7,4.6-7.7,20.2-23.7,45c-22.7,35-34.2,46.5-45.4,62.1c-6.9,9.7-16.2,26.8-16.7,44.4
				c-0.7,25.9-1.5,51.7-2.2,77.6c-0.3,8.9-7.3,16.1-16.1,16.6c-8.3,0.5-16.9,0.7-26,0.7c-15.7,0-30.4-0.7-43.9-1.9
				c-1.8,3.6-5,8.9-10.7,13.1c-8.9,6.6-18.8,6.4-38.3,5.8c-26.1-0.8-32.3-6-34.5-8.1c-3.8-3.6-5.8-7.7-7-10.7
				c-2.3-39.7-4.6-79.4-6.9-119.1c7.3,1.5,27.1,4.6,49.4-4.8c7-3,26.4-12.3,39.2-34.5c2.7-4.7,10.7-19.7,10.8-40.6
				c0-8.4-1.2-29.4-15.8-49.2c-1.8-2.5-14-18.5-35.6-27.3c-10.9-4.4-21.5-5.9-41-8.6c-8-1.1-14.7-1.8-19.4-2.2l0-443.2
				c44,8.8,86.6-10.4,104.5-45.1c0.8-1.6,19-38.2,0.5-75.2C347.9,302.4,305.1,282.5,260.5,291.1z"/>
			<path class="st4" d="M365.8,1019.6c1.5,55.9,3.1,111.8,4.6,167.7"/>
			<path class="st5" d="M420.6,494.5l-122.1,0c-8.9,0-16.1,7.5-16.1,16.6l0,374.6c0,4.8,3.8,8.7,8.5,8.7c4.5,0,9.6,0.2,15.1,0.8
				c9,1.1,27.5,3.5,46.3,15.8c17.8,11.7,28.2,27.2,33.8,37.9c2.4,4.5,6.6,7.7,11.6,8.5c6,0.9,12.9,1.6,20.5,1.5
				c10.8,0,20.1-1.4,27.5-3.1l6.3-5.3l87.5-30.9c2.7-43.2,4.2-89.1,4.2-137.5c0-25.5,0.2-38.5-0.5-47.8c-3.3-40.8-6.2-78-47.6-156.3
				c-2.8-5.2-6.1-11.2-9.3-16.8c-15.6-27.6-23.5-41.6-31.9-49.3C448.2,506.4,437.8,498.8,420.6,494.5z"/>
			<path class="st2" d="M534.2,760.1l0.7,23.6c0,43.2-2.4,86.9-5,130L442,943.3V752.5L534.2,760.1z"/>
			<path class="st2" d="M536.5,605.3c-2.9,5-5.3,9.7-8.2,14.6c-11.8-24.3-26.4-49.9-41.8-76.5c-14.4-24.7-30.3-47.4-44.1-68.3
				l2.1-49.9c12.2,22.2,24.4,43.9,37.1,68.2C501.8,531.7,520.5,569.5,536.5,605.3z"/>
			<path class="st2" d="M535.6,740l-91.1-21.6l-9.2-207.7c3.9,2.2,7.4,4.7,10.6,7.5c7.6,6.7,15.5,20,31.4,47.2
				c3.3,5.6,6.7,11.4,9.5,16.5c42,76.8,44.9,112.1,48.3,153c0.2,2,0.3,4.3,0.4,6.9"/>
			<path class="st2" d="M530.3,935.3L446,961.4v53.4c0,8.9,10.6,13.5,17.2,7.5c9.2-8.5,18.8-18.4,28.4-29.8
				C508.9,971.9,521.4,951.9,530.3,935.3z"/>
			<path class="st2" d="M354.1,190.9l5.2,50.8c5.2,1,11.5,2.7,18.4,5.6c7.2,3.1,13.1,6.6,17.5,9.7c-1.4-15.4-2.8-30.8-4.2-46.2
				c-4.3-3-9.1-6.1-14.4-9.2C368.6,197.1,361,193.6,354.1,190.9"/>
			<path class="st5" d="M359.5,241.8c-0.8,27.3-1.7,54.6-2.5,81.9"/>
			<path class="st5" d="M542,752.5l-94.2-16.8c-17.5-2.4-36.2-4.3-55.9-5.4c-40.4-2.2-77.1-0.6-109.5,2.9"/>
			<path class="st6" d="M447.7,522.2l25.9,39.3c2,3,1.2,7-1.7,9.1c-2.8,1.9-6.5,3.9-11.2,5c-7.7,1.8-14.3,0.3-18.5-1.2
				c-2.5-0.9-4.2-3.2-4.4-5.9c-0.7-14.1-1.5-28.2-2.2-42.4c-0.2-3.2,2-6.1,5.1-6.8h0C443.4,518.8,446.2,519.9,447.7,522.2z"/>
			<path class="st2" d="M442.1,1187.3l-0.9-29.9c-0.1-3.9-3.2-7-7.1-7.2c-3.9-0.1-8-0.2-12.2-0.1c-6.1,0.1-11.8,0.4-17.2,1
				c-3.4,0.3-6.1,3-6.6,6.4l-4,29.8c9.2,0.5,19,0.8,29.2,0.7C429.7,1187.9,436,1187.7,442.1,1187.3z"/>
			<path class="st5" d="M395.2,257c8,35.8,15.3,73.7,21.6,113.6c3.7,23.7,6.9,46.7,9.5,69.2c0.4,2.4,1.1,5.3,2.4,8.6
				c1.5,4,3.2,6.7,4,7.9c2.2,3.7,5.5,9.5,9.8,18.8"/>
			<ellipse class="st7" cx="413.5" cy="685.9" rx="4.9" ry="24.3"/>
			<path class="st7" d="M413.5,934.4c2.7,0,4.9-10.9,4.9-24.3c0-13.4-2.2-24.3-4.9-24.3c-2.7,0-4.9,10.9-4.9,24.3
				C408.6,923.6,410.8,934.4,413.5,934.4z"/>
		</g>
		<path class="st2" d="M501.9,163.9c-0.7,0-6.8,37.4-6.8,37.4h89.8l12.5-24c3.2-6.1-1.3-13.4-8.1-13.4L501.9,163.9z"/>
		<path class="st5" d="M842.3,107.7v-0.3c0-3.9-3.1-7-7-7H549.4c-3.9,0-7,3.1-7,7v0.3c0,3.9,3.1,7,7,7l285.8,0
			C839.1,114.7,842.3,111.6,842.3,107.7z"/>
		<path class="st5" d="M693.4,188.3h-79.2c-3,0-4.7-3.7-2.8-6.1l2-2.5c10.3-13.4,25.7-21.7,42.2-22.5c0.1,0,0.2,0,0.3,0
			c12.9-0.6,25.4-1,37.6-1.2"/>
		<path class="st2" d="M692.7,593.4c28.5,0.1,59.1,1.3,91.5,4.3c20.6,1.9,40.4,4.3,59.2,7.2c14-49.1,28-98.2,42-147.3l-0.5-0.4
			c-32.8-26.8-84.2-39.7-114.4-43.4c-19.1-2.4-57.8-2.6-77-2.6c-19.4,0-58.4,0.2-77.7,2.6c-30.2,3.7-81.7,16.6-114.4,43.4l-0.5,0.4
			c14,49.1,28,98.2,42,147.3c18.8-2.8,38.6-5.3,59.2-7.2c32.4-3,63-4.2,91.5-4.3"/>
		<path class="st2" d="M889.1,163.9c0.7,0,6.8,37.4,6.8,37.4l-89.8,0l-12.5-24c-3.2-6.1,1.3-13.4,8.1-13.4H889.1z"/>
		<path class="st5" d="M692.7,188.3h79.2c3,0,4.7-3.7,2.8-6.1l-2-2.5c-10.3-13.4-25.7-21.7-42.2-22.5c-0.1,0-0.2,0-0.3,0
			c-12.9-0.6-25.4-1-37.6-1.2"/>
		<path class="st8" d="M876.9,1058.4c-0.5,34.6-1,69.1-1.5,103.7c-0.2,13.1-9.4,23.8-21.2,24.8c-26.9,2.2-54.5,4-82.8,5.3
			c-26.8,1.2-53.1,2-78.6,2.3h0.7c-25.6-0.3-51.8-1.1-78.6-2.3c-28.3-1.3-55.9-3.1-82.8-5.3c-11.8-1-21-11.7-21.2-24.8
			c-0.5-34.6-1-69.1-1.5-103.7"/>
		<g>
			<path class="st3" d="M869.7,1365.2c2.9,0.6,5.7,0.8,5.7,0.8c3.3,0,5.6,0.1,7.3-1.1c1.7-1.3,2.2-3.2,2.4-3.9
				c2.5-6.6,4.9-13.7,7.2-21.2c2-6.4,3.7-12.6,5.2-18.6c1.4-4.4,2.1-9,2.1-13.7v-17.2c0-4.5-3.5-8.1-7.8-8.1h-2.6
				c-1.9,0-3.4-1.6-3.4-3.5v-83.4l-192-0.7h0.7l-192,0.7v83.4c0,2-1.5,3.5-3.4,3.5h-2.6c-4.3,0-7.8,3.6-7.8,8.1v17.2
				c0,4.7,0.7,9.3,2.1,13.7c1.5,6,3.2,12.1,5.2,18.6c2.3,7.5,4.7,14.6,7.2,21.2c0.2,0.8,0.7,2.7,2.4,3.9c1.6,1.2,3.9,1.1,7.3,1.1
				c0,0,2.8-0.2,5.7-0.8c7.5-1.5,15.2-2.1,22.9-2.1l305.6,0C854.5,1363.1,862.2,1363.8,869.7,1365.2z"/>
			<path class="st2" d="M502.4,1208.6c0.1,17.7,0.3,35.3,0.4,53c16.4-0.1,32.9-0.2,49.3-0.2c5.7,0,9.9-4,8.1-7.6l-19.1-38.3
				c-1.9-3.9-7.2-6.4-13.2-6.4C519.4,1208.9,510.9,1208.8,502.4,1208.6z"/>
			<path class="st5" d="M558,1249.2l8.8,16.4c3.2,6,9.4,9.8,16.2,9.8H693"/>
			<path class="st2" d="M886.5,1208.6c-0.1,17.7-0.3,35.3-0.4,53c-16.7-0.1-33.5-0.2-50.2-0.2c-5.8,0-10.1-4-8.3-7.6l19.5-38.3
				c2-3.9,7.3-6.4,13.5-6.4C869.2,1208.9,877.9,1208.8,886.5,1208.6z"/>
			<path class="st5" d="M830,1249.2l-8.9,16.4c-3.3,6-9.6,9.8-16.4,9.8l-112.1,0"/>
		</g>
		<g>
			<g>
				<ellipse class="st3" cx="1094.3" cy="375.3" rx="67.6" ry="69.2"/>
				<path class="st4" d="M1094.3,427.9c28.3,0,51.3-23.5,51.3-52.6c0-29-23-52.6-51.3-52.6c-28.3,0-51.3,23.5-51.3,52.6
					C1043,404.3,1066,427.9,1094.3,427.9z"/>
			</g>
			<g>
				<ellipse class="st3" cx="1094.5" cy="987.1" rx="67.6" ry="69.2"/>
				<ellipse class="st4" cx="1094.5" cy="987.1" rx="51.3" ry="52.6"/>
			</g>
			<path class="st3" d="M1123.8,291.1l0-84.8c-9.3-5.4-24.9-13-45.6-16.3c-20.5-3.3-37.5-1.2-48,1c-6.5,2.5-13.8,5.8-21.4,10.1
				c-4.5,2.5-8.6,5-12.3,7.5c-5,3.3-8.7,8.2-10.4,13.9c-6.9,23-13.5,47-19.7,72.1c-11.4,45.9-20,89.7-26.6,130.8
				c-11.4,18.8-27.1,45.8-44.6,79.1c-24.2,46.2-40.4,76.5-51.7,112.1c-10.9,34.2-17.4,109-18.2,145.7c-0.7,29.7,1.4,83.8,4.6,139.7
				c0.6,10,3.8,24,10.1,41c1.7,4.6,7.7,20.2,23.7,45c22.7,35,34.2,46.5,45.4,62.1c6.9,9.7,16.2,26.8,16.7,44.4
				c0.7,25.9,1.5,51.7,2.2,77.6c0.3,8.9,7.3,16.1,16.1,16.6c8.3,0.5,16.9,0.7,26,0.7c15.7,0,30.4-0.7,43.9-1.9
				c1.8,3.6,5,8.9,10.7,13.1c8.9,6.6,18.8,6.4,38.3,5.7c26.1-0.8,32.3-6,34.5-8.1c3.8-3.6,5.8-7.7,7-10.7
				c2.3-39.7,4.6-79.4,6.9-119.1c-7.3,1.5-27.1,4.6-49.4-4.8c-7-3-26.4-12.3-39.2-34.5c-2.7-4.7-10.7-19.7-10.8-40.6
				c0-8.4,1.2-29.4,15.8-49.2c1.8-2.5,14-18.5,35.6-27.3c10.9-4.4,21.5-5.9,41-8.6c8-1.1,14.7-1.8,19.4-2.2l0-443.2
				c-44,8.8-86.6-10.4-104.5-45.1c-0.8-1.6-19-38.2-0.5-75.2C1036.4,302.4,1079.2,282.5,1123.8,291.1z"/>
			<path class="st4" d="M1018.5,1019.6c-1.5,55.9-3.1,111.8-4.6,167.7"/>
			<path class="st5" d="M963.7,494.5h122.1c8.9,0,16.1,7.5,16.1,16.6l0,374.6c0,4.8-3.8,8.7-8.5,8.7c-4.5,0-9.6,0.2-15.1,0.8
				c-9,1.1-27.5,3.5-46.3,15.8c-17.8,11.7-28.2,27.2-33.8,37.9c-2.4,4.5-6.6,7.7-11.6,8.5c-6,0.9-12.9,1.6-20.5,1.5
				c-10.8,0-20.1-1.4-27.5-3.1l-6.3-5.3l-87.5-30.9c-2.7-43.2-4.2-89.1-4.2-137.5c0-25.5-0.2-38.5,0.5-47.8
				c3.3-40.8,6.2-78,47.6-156.3c2.8-5.2,6.1-11.2,9.3-16.8c15.6-27.6,23.5-41.6,31.9-49.3C936.1,506.4,946.6,498.8,963.7,494.5z"/>
			<path class="st2" d="M847.9,760.1l0.4,23.6c0,43.2,0.7,86.9,3.3,130l86.1,29.6l0-190.8L847.9,760.1z"/>
			<path class="st2" d="M847.6,604.8c2.9,5,5.6,10.2,8.5,15.1c11.8-24.3,24.1-49.9,39.6-76.5c14.4-24.7,28.4-47.4,42.2-68.3v-51.4
				c-12.2,22.2-24.6,45.4-37.4,69.7C880.3,531.7,863.5,569,847.6,604.8z"/>
			<path class="st2" d="M848.8,740l91.1-21.6l9.2-207.7c-3.9,2.2-7.4,4.7-10.6,7.5c-7.6,6.7-15.5,20-31.4,47.2
				c-3.3,5.6-6.7,11.4-9.5,16.5c-42,76.8-44.9,112.1-48.3,153c-0.2,2-0.3,4.3-0.4,6.9"/>
			<path class="st2" d="M854.1,935.3l84.3,26.1v53.4c0,8.9-10.6,13.5-17.2,7.5c-9.2-8.5-18.8-18.4-28.4-29.8
				C875.5,971.9,863,951.9,854.1,935.3z"/>
			<path class="st2" d="M1030.2,190.9l-5.2,50.8c-5.2,1-11.5,2.7-18.4,5.6c-7.2,3.1-13.1,6.6-17.5,9.7c1.4-15.4,2.8-30.8,4.2-46.2
				c4.3-3,9.1-6.1,14.4-9.2C1015.7,197.1,1023.4,193.6,1030.2,190.9"/>
			<path class="st5" d="M1027.4,323.8c-0.8-27.3-1.7-54.6-2.5-81.9"/>
			<path class="st5" d="M842.4,752.5l94.2-16.8c17.5-2.4,36.2-4.3,55.9-5.4c40.4-2.2,77.1-0.6,109.5,2.9"/>
			<path class="st6" d="M936.6,522.2l-25.9,39.3c-2,3-1.2,7,1.7,9.1c2.8,1.9,6.5,3.9,11.2,5c7.7,1.8,14.3,0.3,18.5-1.2
				c2.5-0.9,4.2-3.2,4.4-5.9c0.7-14.1,1.5-28.2,2.2-42.4c0.2-3.2-2-6.1-5.1-6.8l0,0C941,518.8,938.2,519.9,936.6,522.2z"/>
			<path class="st2" d="M942.2,1187.3l0.9-29.9c0.1-3.9,3.2-7,7.1-7.2c3.9-0.1,8-0.2,12.2-0.1c6.1,0.1,11.8,0.4,17.2,1
				c3.4,0.3,6.1,3,6.6,6.4l4,29.8c-9.2,0.5-19,0.8-29.2,0.7C954.6,1187.9,948.3,1187.7,942.2,1187.3z"/>
			<path class="st5" d="M989.2,257c-8,35.8-15.3,73.7-21.6,113.6c-3.7,23.7-6.9,46.7-9.5,69.2c-0.4,2.4-1.1,5.3-2.4,8.6
				c-1.1,2.8-2.4,5.4-4,7.9c-4,6.3-7.9,12.5-11.9,18.8"/>
			<ellipse class="st7" cx="970.9" cy="685.9" rx="4.9" ry="24.3"/>
			<path class="st7" d="M970.9,934.4c-2.7,0-4.9-10.9-4.9-24.3s2.2-24.3,4.9-24.3c2.7,0,4.9,10.9,4.9,24.3
				C975.8,923.6,973.6,934.4,970.9,934.4z"/>
			<line class="st5" x1="1101.9" y1="884.2" x2="1101.9" y2="902"/>
		</g>
		<path class="st5" d="M282.5,508.6c0.3-16.4,0.5-32.8,0.8-49.2"/>
		<line class="st5" x1="1101.9" y1="511.1" x2="1101.9" y2="460"/>
		<path class="st5" d="M282.5,885.7c0,6,0,12.1,0.1,18.1"/>
	</g>
</g>
<g id="Layer_2">
	<path class="st9" d="M1027.5,324.1c0,0-30,34.5-10.5,83.6c23.5,53.5,85,52.1,85,52.1l-0.1,50.8c-0.5-10-7.8-16.2-18.8-16.1
		c-9.5,0.1-103,0.6-119,0c-2.6,0.4-13.1,4-16.6,5.9c-7.6,4.1-14.4,9-14.4,9l-9.4-12.1c0,0,14-20.9,25.5-37.1s8.5-23.9,10.2-33.4
		s4-37.5,12.5-84s17-85.5,17-85.5s6.2-4.5,15.6-9c7.6-3.6,20.2-6.4,20.2-6.4L1027.5,324.1z"/>
	<path class="st9" d="M1082.9,494.5c-18.8,0-119.2,0-119.2,0s-13.4,3.9-24.5,10.2s-19.3,19.2-27.8,33.2
		c-8.3,14.6-43.6,77.3-54.1,111.3c-19,57.5-16.5,103.8-16.5,103.8s79.5-14.5,96.8-17.2s56.5-6.5,94.8-6.5s69.6,4,69.6,4l0-217.9
		C1101.9,508.4,1101.6,494.5,1082.9,494.5z M939.3,718.7l-90.5,21c0,0,1.8-25,4.8-41.8s6-30,18.8-64.2c7.8-20.5,36.3-71.8,50-94.2
		c13-21.8,26.5-28.8,26.5-28.8L939.3,718.7z M971.2,710c-3.7,0-5.2-16.2-5-24.3c0.5-23,4.7-23.7,4.7-23.7c4,0,4.8,17.2,4.8,24
		S974.8,710,971.2,710z"/>
	<path class="st9" d="M969.5,731.7c-23.8,2.5-26.2,3.2-31,3.5S841,753,841,753s-0.3,71.7,0.8,106.3c1.2,34.7,3,60.4,3,60.4
		l86.8,30.5l7.2,5.7c0,0,8.3,2.5,27.3,3.3c10.3,0.3,19-1.7,23-2.2c4.8-2.2,8.7-4.7,16.2-20c11-14.3,23.2-25.5,39.5-33
		s31.2-8.7,39.8-9.5c7.9-0.1,7.7,0.1,9.4,0s8-2.4,7.8-8.8c0.1-6.5,0.1-152.5,0.1-152.5S1041.3,725.5,969.5,731.7z M851.7,913.8
		c0,0-2.8-41.9-2.6-65.9c-0.2-24.5-1.3-87.6-1.3-87.6l90-7.8l0,190.9L851.7,913.8z M970.8,934.2c-4,0.2-5-18.2-5-24.7
		c1.7-23.5,4.8-23.3,4.8-23.3c4.8,0,5,20.2,5.2,26C976,918,974.8,934,970.8,934.2z"/>
	<path class="st10" d="M1089.8,894.5c-12,1-30,0.9-51.2,12.8s-27.1,24-33.6,30.4c-5,8.5-7.5,16.2-13.4,18.1
		c-5.9,3.6-26.8,4-35.2,2.8c-9.4-1-17.8-2.6-17.8-2.6l-7.1-5.9l-86.6-30.2l-10.6,5.1c0,0,7.7,27.5,20.4,48.1s36.7,54.3,46.7,67.3
		s26,30.7,25.3,71c-0.7,40.3,0.8,40.5,0.8,50s-1.3,23.2,16.3,27.2c18.5,0.8,31,1.2,47,0.3c16-0.8,22.7-1.7,22.7-1.7l5-167.2
		c0,0-16.7-36,4.3-73.5c22.7-42,78.8-42.8,78.8-42.8l0.1-15.7C1101.8,888,1101.4,895,1089.8,894.5z M931.9,1024.2
		c-7.4,2.6-10.1-1.4-13.9-5s-12.9-11.8-30.8-33.6c-17.9-21.9-33.1-50.2-33.1-50.2l84.3,26c0,0-0.2,39.5,0.1,46.1
		S939.3,1021.6,931.9,1024.2z M965.9,1188c-5.7,0-23.7-0.7-23.7-0.7s0.8-22.2,0.8-27.9s2.1-9.2,10.3-9.3c8.4,0,18.2,0.4,23.7,0.8
		c5.4,0.4,8.5,1.2,9.5,8.2c1,7.1,3.8,28.1,3.8,28.1S971.6,1188,965.9,1188z"/>
	<path class="st9" d="M1018.5,1020c0,0,11.8,30.5,40.8,42.2s51.5,6.2,51.5,6.2s-4.2,100.5-5.8,112.2s-4,20-23,23.8
		c-16.2,2.8-35.5,1.9-43.5,1.4c-16.4-1.4-25-18.9-25-18.9L1018.5,1020z"/>
	<path class="st9" d="M356.2,323.8c0,0,30,34.5,10.5,83.6c-23.5,53.5-85,52.1-85,52.1l0.1,50.8c0.5-10,7.7-16.2,18.7-16.1
		c9.5,0.1,103,0.6,119,0c2.6,0.4,13.1,4,16.6,5.9c7.6,4.1,14.4,9,14.4,9l9.4-12.1c0,0-14-20.9-25.5-37.1s-8.5-23.9-10.2-33.4
		s-4-37.5-12.5-84c-8.5-46.5-17-85.5-17-85.5s-6.2-4.5-15.6-9c-7.6-3.6-20.2-6.4-20.2-6.4L356.2,323.8z"/>
	<path class="st9" d="M300.9,494.2c18.8,0,119.2,0,119.2,0s13.4,3.9,24.5,10.2c11.1,6.4,19.3,19.2,27.8,33.2
		c8.3,14.6,43.6,77.3,54.1,111.3c19,57.5,16.5,103.8,16.5,103.8s-79.5-14.5-96.8-17.2c-17.2-2.8-56.5-6.5-94.7-6.5s-69.6,4-69.6,4
		l0-217.9C281.9,508,282.1,494.2,300.9,494.2z M444.5,718.4l90.5,21c0,0-1.8-25-4.8-41.8c-3-16.8-6-30-18.7-64.2
		c-7.8-20.5-36.3-71.8-50-94.2c-13-21.8-26.5-28.8-26.5-28.8L444.5,718.4z M412.6,709.7c3.7,0,5.2-16.2,5-24.3
		c-0.5-23-4.7-23.7-4.7-23.7c-4,0-4.8,17.2-4.8,24S408.9,709.7,412.6,709.7z"/>
	<path class="st9" d="M414.2,731.4c23.7,2.5,26.2,3.2,31,3.5c4.7,0.2,97.5,17.8,97.5,17.8s0.3,71.7-0.8,106.3
		c-1.2,34.7-3,60.4-3,60.4l-86.8,30.5l-7.2,5.7c0,0-8.3,2.5-27.3,3.3c-10.3,0.3-19-1.7-23-2.2c-4.8-2.2-8.7-4.7-16.2-20
		c-11-14.3-23.2-25.5-39.5-33c-16.3-7.5-31.2-8.7-39.8-9.5c-7.9-0.1-7.7,0.1-9.4,0c-1.8-0.1-8-2.4-7.8-8.8
		c-0.1-6.5-0.1-152.5-0.1-152.5S342.5,725.2,414.2,731.4z M532,913.4c0,0,2.8-41.9,2.6-65.9c0.2-24.5,1.3-87.6,1.3-87.6l-90-7.8
		l0,190.9L532,913.4z M412.9,933.8c4,0.2,5-18.2,5-24.7c-1.7-23.5-4.8-23.3-4.8-23.3c-4.8,0-5,20.2-5.2,26
		C407.7,917.7,408.9,933.7,412.9,933.8z"/>
	<path class="st9" d="M294,894.2c12,1,30,0.9,51.2,12.8c21.2,11.9,27.1,24,33.6,30.4c5,8.5,7.5,16.2,13.4,18.1
		c5.9,3.6,26.7,4,35.2,2.8c9.4-1,17.8-2.6,17.8-2.6l7.1-5.9l86.6-30.2l10.6,5.1c0,0-7.7,27.5-20.4,48.1
		c-12.7,20.6-36.7,54.3-46.7,67.3c-10,13-26,30.7-25.3,71c0.7,40.3-0.8,40.5-0.8,50s1.3,23.2-16.3,27.2c-18.5,0.8-31,1.2-47,0.3
		c-16-0.8-22.7-1.7-22.7-1.7l-5-167.2c0,0,16.7-36-4.3-73.5c-22.7-42-78.8-42.8-78.8-42.8l-0.1-15.7
		C282,887.7,282.4,894.7,294,894.2z M451.9,1023.9c7.4,2.6,10.1-1.4,13.9-5s12.9-11.8,30.8-33.6c17.9-21.9,33.1-50.2,33.1-50.2
		l-84.3,26c0,0,0.2,39.5-0.1,46.1S444.5,1021.3,451.9,1023.9z M417.8,1187.7c5.7,0,23.7-0.7,23.7-0.7s-0.8-22.2-0.8-27.9
		s-2.1-9.2-10.3-9.3c-8.4,0-18.2,0.4-23.7,0.8c-5.4,0.4-8.5,1.2-9.5,8.2c-1,7.1-3.8,28.1-3.8,28.1S412.2,1187.7,417.8,1187.7z"/>
	<path class="st9" d="M365.2,1019.7c0,0-11.8,30.5-40.7,42.2s-51.5,6.2-51.5,6.2s4.2,100.5,5.8,112.2s4,20,23,23.8
		c16.2,2.8,35.5,1.9,43.5,1.4c16.4-1.4,25-18.9,25-18.9L365.2,1019.7z"/>
	<path class="st9" d="M359.5,241.5l-5.5-50.2c0,0-25-6.2-51.8-1c-21,4.8-41.8,16-41.8,16l-0.2,84.2c0,0,40.5-5.5,64,8
		c19.5,11.5,32.8,25.8,32.8,25.8L359.5,241.5z"/>
	<path class="st9" d="M1025.2,241.1l5.5-50.3c0,0,25-6.3,51.8-1c21,4.8,41.8,16,41.8,16l0.2,84.3c0,0-40.5-5.5-64,8
		c-19.5,11.5-32.8,25.8-32.8,25.8L1025.2,241.1z"/>
	<path class="st9" d="M501,457.5c0,0,0.5-73.5,6.5-118.5s8-63.5,12-82.5s20.5-47.5,61.5-48c45.5-5,83-7.5,122.5-7s64.5,4,89,5.5
		c31,1,61,5,73.5,49.5c8.5,48,12.5,85.5,16,122s3,79.5,3,79.5s-24.7-23-76.3-36.7c-53.3-10.7-69.3-10-135.7-9.7
		c-66.3,0.3-86.3,6.7-115,15.3S501,457.5,501,457.5z"/>
	<path class="st9" d="M802.1,163.9c4.8-0.2,100.3-0.1,100.3-0.1s0-20.9-4.7-42.6c-4.7-21.7-6.5-24.8-8.5-30.3s-4.3-10.8-16.7-10.5
		c-12.3,0.3-354-0.2-361.8,0c-7.8,0.2-11.5,4.7-14.3,11.3c-2.8,6.7-7.2,26.3-9.5,37.8c-2.3,11.5-3.3,34.5-3.3,34.5s90-0.6,105.2-0.1
		c8.9,0.2,13,7.6,5.4,19.9L585,201l220.9,0.2c0,0-4.6-8.9-11.8-21C788.6,170,797.4,164.1,802.1,163.9z M771.9,188.3
		c-5.1,0-156.2,0.2-156.2,0.2c-8.3-0.6-4.6-7.2-1.7-9.5c2-2,6.4-8.9,19.4-16c13.6-6.2,20.9-6,59.7-7.1c33.1,2.1,46.8-1.1,60.5,7.6
		c16.6,10.1,18,14.5,20.5,17.9C776.6,184.8,776,187.2,771.9,188.3z M549.8,114.3c-3.9,0-7.2-3.2-7.2-7.2l0,0c0-3.9,3.2-7.2,7.2-7.2
		h286.3c3.9,0,7.2,3.2,7.2,7.2l0,0c0,3.9-3.2,7.2-7.2,7.2H549.8z"/>
	<path class="st9" d="M536.5,605.5l6.2-0.5c0,0,82.9-12,151.6-12S843,604.7,843,604.7l4.3-0.7c0,0-23.8,77.5-21.8,162
		s3.2,93,3.5,116.5c0.3,29.2,4.6,42.3,9,54.5c4.9,13.8,9.8,23.2,9.8,23.2s-1.8,1.8-3.2,2.2c-9.2,6.8-78,19.8-153.8,19.8
		s-136.2-15.5-154.5-21.8c8-14.8,8.5-19.2,14-36.5s9.1-102.7,8.8-161.3c-0.3-58.7-7.3-89.6-10-109.3
		C544.7,621.7,536.5,605.5,536.5,605.5z"/>
	<path class="st9" d="M509.2,1059.5c0,0,1.2,81.5,1.5,100.5s9.5,25.8,24.8,27.2c35.8,2.8,114,7,160.5,7.5s124.8-5.5,150-7.2
		s28-11.2,29.2-24.2c0.2-16.8,1.2-104.2,1.2-104.2s-77.8,23.3-184,20C581,1080.7,509.2,1059.5,509.2,1059.5z"/>
	<path class="st9" d="M502.5,1195.5v13.2c0,0,8.5,0.2,20.8,0.2s15,2,19.5,9.8s20.2,40.2,23.2,45.5s5.8,10.8,19.2,11
		s206.5,0.5,217.8,0.2s14.5-5,18.2-10.8s19.5-39.8,24.2-46.8s9.8-9,15.8-9.2s24.5,0.2,24.5,0.2l-0.2-13.5c0,0-140-1-187.5-0.8
		S502.5,1195.5,502.5,1195.5z"/>
	<path class="st9" d="M502.5,1278.2c-0.3,4.5-3.2,4-6,4s-7.8,2.7-7.8,8.5c0,5.8,0.2,15.5,0.2,19.2c0,3.7,0,4.8,1.8,10.7
		c1.8,5.8,9.7,33.3,11.7,38.2c2,4.8,0.3,9,14,6.7c13.8-1.8,18.2-2,31.3-2c13.2,0,291-0.2,302.5-0.2s19,2.3,23.5,2.8
		s10.8,0.5,11.8-6.3c2.5-6.5,11.3-35.5,13.2-43.2c1.2-8.8,1-19.7,1-24.8c0-5.2-2.5-9.5-8.3-9.5c-5.8,0-5.8-1.8-5.8-5.7
		s0-14.7,0-14.7s-28.3-0.7-38.3-0.7s-18.3,1.7-20-6.5c0.7-1.7-2.3,6.2-5.8,10.7s-5.7,10.2-20.2,10.2s-204,0-217,0s-16.8-8-20-14.8
		c-3.2-6.8-4-6.8-4-6.8s1.7,2.7-2,5.3c-3.7,2.7-4.7,2-7.5,2.2h-48.2V1278.2z"/>
</g>
<g id="Layer_3">
</g>
</svg>
